<?xml version="1.0" encoding="utf-8"?>
<!-- Generator: Adobe Illustrator 20.1.0, SVG Export Plug-In . SVG Version: 6.00 Build 0)  -->
<svg version="1.1" id="icon-reasons-everywhere" xmlns="http://www.w3.org/2000/svg" xmlns:xlink="http://www.w3.org/1999/xlink"
	 x="0px" y="0px" viewBox="0 0 90 3312" style="enable-background:new 0 0 90 3312;" xml:space="preserve">
<style type="text/css">
	.st0{fill:#C4C4C4;}
	.st1{fill:none;}
	.st2{filter:url(#Adobe_OpacityMaskFilter);}
	.st3{fill:#FFFFFF;}
	.st4{mask:url(#abb);}
	.st5{fill:#FFFFFF;fill-opacity:0;stroke:#F86959;stroke-width:4;}
	.st6{fill:none;stroke:#F86959;stroke-width:2;stroke-linecap:square;stroke-linejoin:round;}
	.st7{fill:#F86959;}
	.st8{fill:#FCB5AD;}
	.st9{fill:#DB4C3F;}
	.st10{fill:#F7B850;}
	.st11{filter:url(#Adobe_OpacityMaskFilter_1_);}
	.st12{mask:url(#agc);}
	.st13{fill:#FFFFFF;stroke:#F86A5A;stroke-width:4;}
	.st14{fill:#F86A5A;}
	.st15{filter:url(#Adobe_OpacityMaskFilter_2_);}
	.st16{mask:url(#age);filter:url(#agd);}
	.st17{filter:url(#Adobe_OpacityMaskFilter_3_);}
	.st18{mask:url(#ame);}
	.st19{fill:#FFFFFF;stroke:#F86959;stroke-width:4;}
	.st20{fill:none;stroke:#DB4C3F;stroke-width:2;}
	.st21{fill:none;stroke:#F7B850;stroke-width:2;}
	.st22{filter:url(#Adobe_OpacityMaskFilter_4_);}
	.st23{mask:url(#apb);fill:none;stroke:#F86959;stroke-width:2;}
	.st24{fill:none;stroke:#F86959;stroke-width:2;}
	.st25{fill:#FFFFFF;stroke:#F86959;stroke-width:2;}
	.st26{fill:#FFFFFF;stroke:#DB4C3F;stroke-width:2;}
	.st27{fill:#FFFFFF;stroke:#F7B850;stroke-width:2;}
	.st28{filter:url(#Adobe_OpacityMaskFilter_5_);}
	.st29{mask:url(#avb);}
	.st30{fill:none;stroke:#F86959;stroke-width:4;}
	.st31{fill:none;stroke:#DB4C3F;stroke-width:2;stroke-linecap:round;}
	.st32{fill:none;stroke:#F7B850;stroke-width:2;stroke-linecap:round;}
	.st33{fill:none;stroke:#DB4C3F;stroke-width:1.75;}
	.st34{fill:#FFFFFF;stroke:#DB4C3F;stroke-width:1.75;}
	.st35{fill:#FFFFFF;stroke:#DB4C3F;stroke-width:1.5;}
	.st36{fill:none;stroke:#F7B850;stroke-width:1.75;}
	.st37{fill:#FFFFFF;stroke:#F7B850;stroke-width:1.75;}
	.st38{fill:#FFFFFF;stroke:#F7B850;stroke-width:1.5;}
	.st39{fill:#1049A9;}
	.st40{fill:#EA4C89;}
	.st41{fill:#375085;}
	.st42{fill:#E12828;}
	.st43{fill:#FAD4D4;}
	.st44{fill:#FAEAEA;}
	.st45{fill:#DC4E41;}
	.st46{fill:#2A5B83;}
	.st47{fill:#0077B5;}
	.st48{fill:#AA262A;}
	.st49{fill:#50ABF1;}
	.st50{fill:url(#SVGID_1_);}
	.st51{fill:#8D95AE;}
	.st52{fill:#7D8485;}
	.st53{fill:#444444;}
	.st54{fill:none;stroke:#1049A9;stroke-width:2;stroke-miterlimit:10;}
</style>
<filter  filterUnits="objectBoundingBox" height="200%" id="agd" width="200%" x="-50%" y="-50%">
	<feOffset  dy="2" in="SourceAlpha" result="shadowOffsetOuter1"></feOffset>
	<feColorMatrix  in="shadowOffsetOuter1" result="shadowMatrixOuter1" values="0 0 0 0 1 0 0 0 0 1 0 0 0 0 1 0 0 0 1 0">
		</feColorMatrix>
	<feMerge>
		<feMergeNode  in="shadowMatrixOuter1"></feMergeNode>
		<feMergeNode  in="SourceGraphic"></feMergeNode>
	</feMerge>
</filter>
<title>A</title>
<path class="st0" d="M49.8,44.1c-1.6-4.5-4-8.8-7.2-13.1c-3.2-4.2-6.8-8-10.9-11.4c-4-3.3-8.2-6.3-12.6-9C14.9,8.1,10.5,5.9,5.9,4
	C5.6,3.9,5.3,3.9,5,4C4.8,4.1,4.5,4.3,4.4,4.6c-0.1,0.3-0.1,0.6,0,0.9C4.5,5.8,4.7,6,5,6.1c4.5,1.9,8.9,4.1,13,6.6
	c4.3,2.6,8.4,5.5,12.3,8.7c3.9,3.2,7.4,6.9,10.5,10.9c3,4,5.3,8.2,6.9,12.5c0.1,0.3,0.3,0.5,0.6,0.6c0.3,0.1,0.6,0.2,0.9,0.1
	c0.3-0.1,0.5-0.3,0.6-0.6C49.9,44.7,49.9,44.4,49.8,44.1z M14.8,0.1c-0.1,0-0.7,0-1.6-0.1h-2.7c-1,0-2.1,0-3.1,0
	C5.5,0.1,4,0.2,2.9,0.4C2.2,0.6,1.6,0.8,1.2,1C0.5,1.4,0.1,1.9,0,2.6c0,0.1,0,0.3,0.1,0.5c0,0.1,0,0.3,0.1,0.5
	c0.1,0.3,0.2,0.7,0.3,1.2l1.1,3.5c1,3.5,1.6,5.5,1.7,6.2c0,0.3,0.2,0.5,0.5,0.7c0.3,0.2,0.5,0.3,0.8,0.2c0.3,0,0.5-0.2,0.7-0.5
	s0.3-0.6,0.2-0.9c-0.1-0.7-0.7-2.8-1.8-6.4l-1-3.5C2.6,3.8,2.5,3.4,2.3,3c0.2-0.1,0.6-0.2,1-0.3c1-0.2,2.3-0.3,4.1-0.3
	c1,0,2.1-0.1,3.1,0c1.4,0,2.8,0.1,4.3,0.1c0.3,0,0.6-0.1,0.8-0.3c0.2-0.2,0.3-0.5,0.3-0.8s-0.1-0.6-0.3-0.8
	C15.4,0.2,15.1,0.1,14.8,0.1z"/>
<title>activity_icon</title>
<g>
	<path class="st1" d="M-5,37h42v42H-5V37z"/>
	<defs>
		<filter id="Adobe_OpacityMaskFilter" filterUnits="userSpaceOnUse" x="-2" y="44" width="36" height="31">
			<feColorMatrix  type="matrix" values="1 0 0 0 0  0 1 0 0 0  0 0 1 0 0  0 0 0 1 0"/>
		</filter>
	</defs>
	<mask maskUnits="userSpaceOnUse" x="-2" y="44" width="36" height="31" id="abb">
		<g class="st2">
			<path id="aba" class="st3" d="M4,46h24c2.2,0,4,1.9,4,4.3v18.4c0,2.4-1.8,4.3-4,4.3H4c-2.2,0-4-1.9-4-4.3V50.3
				C0,47.9,1.8,46,4,46z"/>
		</g>
	</mask>
	<g class="st4">
		<g>
			<path id="aba_1_" class="st5" d="M4,46h24c2.2,0,4,1.9,4,4.3v18.4c0,2.4-1.8,4.3-4,4.3H4c-2.2,0-4-1.9-4-4.3V50.3
				C0,47.9,1.8,46,4,46z"/>
		</g>
		<path class="st6" d="M2,61h5.8l2.6-4.5l5.1,10.1l5.3-14.1l3.6,8.6H30"/>
	</g>
</g>
<title>admin_icon</title>
<g>
	<path class="st1" d="M-4,66h42v42H-4V66z"/>
	<path class="st7" d="M0,76c0-1.7,1.3-3,3-3h28c1.7,0,3,1.3,3,3v18c0,1.7-1.3,3-3,3H3c-1.7,0-3-1.3-3-3V76z M2,76c0-0.6,0.4-1,1-1
		h28c0.5,0,1,0.4,1,1v18H2C2,94,2,76,2,76z"/>
	<path class="st8" d="M14.6,80.2c0.3-0.2,0.7-0.3,1-0.4l0.3-1.3c0.1-0.3,0.3-0.5,0.6-0.5h1c0.3,0,0.5,0.2,0.6,0.5l0.3,1.3
		c0.4,0.1,0.7,0.2,1,0.4l1.1-0.8c0.2-0.1,0.5-0.1,0.8,0.1l0.7,0.7c0.2,0.2,0.2,0.5,0.1,0.8l-0.8,1.1c0.2,0.3,0.3,0.6,0.4,1l1.3,0.3
		c0.3,0.1,0.5,0.3,0.5,0.6v1c0,0.3-0.2,0.5-0.5,0.6l-1.3,0.3c-0.1,0.4-0.2,0.7-0.4,1L22,88c0.1,0.2,0.1,0.6-0.1,0.8l-0.7,0.7
		c-0.2,0.2-0.5,0.2-0.8,0.1l-1.1-0.8c-0.3,0.2-0.7,0.3-1,0.4l-0.3,1.3C18,90.8,17.8,91,17.5,91h-1c-0.3,0-0.5-0.2-0.6-0.5l-0.3-1.3
		c-0.4-0.1-0.7-0.2-1-0.4l-1.1,0.8c-0.2,0.2-0.5,0.1-0.8-0.1L12,88.7c-0.2-0.2-0.2-0.5-0.1-0.8l0.8-1.1c-0.2-0.3-0.3-0.7-0.4-1
		L11,85.6c-0.3-0.1-0.5-0.3-0.5-0.6v-1c0-0.3,0.2-0.5,0.5-0.6l1.3-0.3c0.1-0.3,0.2-0.7,0.4-1L12,81c-0.1-0.2-0.1-0.5,0.1-0.8
		l0.7-0.7c0.2-0.2,0.5-0.2,0.8-0.1L14.6,80.2L14.6,80.2z M17,86.9c1.3,0,2.4-1.2,2.4-2.5c0-1.3-1.1-2.3-2.4-2.4
		c-1.3,0-2.4,1.2-2.4,2.5C14.7,85.9,15.7,86.9,17,86.9z"/>
	<path class="st7" d="M21,98h-8v2h-2v2h12v-2h-2"/>
</g>
<title>backup_icon</title>
<g>
	<path class="st1" d="M-3,95h42v42H-3V95z"/>
	<path class="st7" d="M7,116h5l-6,6l-6-6h5c0-7.7,6.3-14,14-14s14,6.3,14,14s-6.3,14-14,14c-3.5,0-6.8-1.3-9.4-3.6L11,125
		c2.2,2,5,3,8,3c6.6,0,12-5.4,12-12s-5.4-12-12-12S7,109.4,7,116z M25,118h-8v-9h2v7.2h6V118z"/>
</g>
<title>backup_icon</title>
<g>
	<path class="st9" d="M4,151l6,6l6-6H4z"/>
	<path class="st9" d="M10,156.2c-0.6-1.6-1-3.4-1-5.2c0-7.7,6.3-14,14-14s14,6.3,14,14s-6.3,14-14,14c-3.5,0-6.8-1.3-9.4-3.6
		l1.5-1.5c2.2,1.9,5,3,7.9,3c6.5,0,11.8-5.3,11.8-11.8s-5.3-11.8-11.8-11.8s-11.8,5.3-11.8,11.8H10V156.2z"/>
	<path class="st9" d="M29,153h-8v-9h2v7.2h6V153z"/>
</g>
<title>backup_icon</title>
<g>
	<path class="st10" d="M4,193l6,6l6-6H4z"/>
	<path class="st10" d="M10,198.2c-0.6-1.6-1-3.4-1-5.2c0-7.7,6.3-14,14-14s14,6.3,14,14s-6.3,14-14,14c-3.5,0-6.8-1.3-9.4-3.6
		l1.5-1.5c2.2,1.9,5,3,7.9,3c6.5,0,11.8-5.3,11.8-11.8s-5.3-11.8-11.8-11.8s-11.8,5.3-11.8,11.8H10V198.2z"/>
	<path class="st10" d="M29,195h-8v-9h2v7.2h6V195z"/>
</g>
<title>comments_icon</title>
<g>
	<path class="st1" d="M-4,207h42v42H-4V207z"/>
	<defs>
		<filter id="Adobe_OpacityMaskFilter_1_" filterUnits="userSpaceOnUse" x="2" y="216" width="34" height="30">
			<feColorMatrix  type="matrix" values="1 0 0 0 0  0 1 0 0 0  0 0 1 0 0  0 0 0 1 0"/>
		</filter>
	</defs>
	<mask maskUnits="userSpaceOnUse" x="2" y="216" width="34" height="30" id="agc">
		<g class="st11">
			<path id="aga" class="st3" d="M30,231v-13c0-2.2-1.8-4-4-4H4c-2.2,0-4,1.8-4,4c0,0,0,0,0,0v13c0,2.2,1.8,4,4,4h13l7,5h1v-5h1
				C28.2,235,30,233.2,30,231z"/>
		</g>
	</mask>
	<g transform="translate(4 4)" class="st12">
		<g>
			<path id="aga_1_" class="st13" d="M30,231v-13c0-2.2-1.8-4-4-4H4c-2.2,0-4,1.8-4,4c0,0,0,0,0,0v13c0,2.2,1.8,4,4,4h13l7,5h1v-5h1
				C28.2,235,30,233.2,30,231z"/>
		</g>
		<path class="st3" d="M26,214h2v17h-2V214z"/>
		<path class="st14" d="M29,214L29,214c0.6,0,1,0.4,1,1v2c0,0.6-0.4,1-1,1l0,0c-0.6,0-1-0.4-1-1v-2C28,214.4,28.4,214,29,214z"/>
	</g>
	<path class="st3" d="M3,235h2v7H3V235z"/>
	<defs>
		<filter id="Adobe_OpacityMaskFilter_2_" filterUnits="userSpaceOnUse" x="-2" y="212" width="34" height="30">
			<feColorMatrix  type="matrix" values="1 0 0 0 0  0 1 0 0 0  0 0 1 0 0  0 0 0 1 0"/>
		</filter>
	</defs>
	<mask maskUnits="userSpaceOnUse" x="-2" y="212" width="34" height="30" id="age">
		<g class="st15">
			<path id="agb" class="st3" d="M30,231v-13c0-2.2-1.8-4-4-4H4c-2.2,0-4,1.8-4,4c0,0,0,0,0,0v13c0,2.2,1.8,4,4,4h13l7,5h1v-5h1
				C28.2,235,30,233.2,30,231z"/>
		</g>
	</mask>
	<g transform="matrix(-1 0 0 1 30 0)" class="st16">
		<g>
			<path class="st13" d="M30,231v-13c0-2.2-1.8-4-4-4H4c-2.2,0-4,1.8-4,4c0,0,0,0,0,0v13c0,2.2,1.8,4,4,4h13l7,5h1v-5h1
				C28.2,235,30,233.2,30,231z"/>
		</g>
		<path class="st8" d="M7,226h16v2H7V226z M23,221H7v2h16V221z"/>
	</g>
</g>
<title>icon-features-dates</title>
<path class="st9" d="M2,274.5h38v1.5H2V274.5z M11,277.5h20v1.5H11V277.5z M7.1,273L2,269.2l5.1-3.8l-2.5-5.8l6.3-0.6l0.6-6.4
	l5.7,2.6L21,250l3.8,5.1l5.7-2.6l0.6,6.4l6.3,0.6l-2.5,5.7l5.1,3.8l-5.1,3.8h-4.5c0.5-1.2,0.7-2.5,0.7-3.8c0-5.6-4.5-10.2-10.1-10.2
	s-10.1,4.6-10.1,10.2c0,1.4,0.3,2.6,0.7,3.8H7.1L7.1,273z"/>
<title>icon-features-dates</title>
<path class="st10" d="M2,316.5h38v1.5H2V316.5z M11,319.5h20v1.5H11V319.5z M7.1,315L2,311.2l5.1-3.8l-2.5-5.8l6.3-0.6l0.6-6.4
	l5.7,2.6L21,292l3.8,5.1l5.7-2.6l0.6,6.4l6.3,0.6l-2.5,5.7l5.1,3.8l-5.1,3.8h-4.5c0.5-1.2,0.7-2.5,0.7-3.8c0-5.6-4.5-10.2-10.1-10.2
	s-10.1,4.6-10.1,10.2c0,1.4,0.3,2.6,0.7,3.8H7.1L7.1,315z"/>
<title>email_icon</title>
<g>
	<path class="st1" d="M-5,318h42v42H-5V318z"/>
	<path class="st7" d="M30,333.1V332c0-1.1-0.9-2-2-2H4c-1.1,0-2,0.9-2,2v1.1l14,7.9L30,333.1z M30,335.4V349c0,1.1-0.9,2-2,2H4
		c-1.1,0-2-0.9-2-2v-13.6l14,7.9L30,335.4z M0,332c0-2.2,1.8-4,4-4h24c2.2,0,4,1.8,4,4v17c0,2.2-1.8,4-4,4H4c-2.2,0-4-1.8-4-4V332z"
		/>
</g>
<title>email_icon</title>
<path class="st9" d="M35,367.1V366c0-1.1-0.9-2-2-2H9c-1.1,0-2,0.9-2,2v1.1l14,7.9L35,367.1z M35,369.4V383c0,1.1-0.9,2-2,2H9
	c-1.1,0-2-0.9-2-2v-13.6l14,7.9L35,369.4z M5,366c0-2.2,1.8-4,4-4h24c2.2,0,4,1.8,4,4v17c0,2.2-1.8,4-4,4H9c-2.2,0-4-1.8-4-4V366z"
	/>
<title>email_icon</title>
<path class="st10" d="M35,409.1V408c0-1.1-0.9-2-2-2H9c-1.1,0-2,0.9-2,2v1.1l14,7.9L35,409.1z M35,411.4V425c0,1.1-0.9,2-2,2H9
	c-1.1,0-2-0.9-2-2v-13.6l14,7.9L35,411.4z M5,408c0-2.2,1.8-4,4-4h24c2.2,0,4,1.8,4,4v17c0,2.2-1.8,4-4,4H9c-2.2,0-4-1.8-4-4V408z"
	/>
<title>vault_icon</title>
<defs>
	<filter id="Adobe_OpacityMaskFilter_3_" filterUnits="userSpaceOnUse" x="-4" y="431" width="42" height="41.7">
		<feColorMatrix  type="matrix" values="1 0 0 0 0  0 1 0 0 0  0 0 1 0 0  0 0 0 1 0"/>
	</filter>
</defs>
<mask maskUnits="userSpaceOnUse" x="-4" y="431" width="42" height="41.7" id="ame">
	<g class="st17">
		<path id="ama" class="st3" d="M4,437h26c2.2,0,4,1.9,4,4.3v20.4c0,2.4-1.8,4.3-4,4.3H4c-2.2,0-4-1.9-4-4.3v-20.4
			C0,438.9,1.8,437,4,437z"/>
	</g>
	<g>
		<path id="amb" class="st3" d="M6,441h22c1.1,0,2,0.9,2,2v17c0,1.1-0.9,2-2,2H6c-1.1,0-2-0.9-2-2v-17C4,441.9,4.9,441,6,441z"/>
	</g>
	<g>
		<path id="amc" class="st3" d="M4,454h4v3H4V454z"/>
	</g>
	<g>
		<path id="amd" class="st3" d="M4,447h4v3H4V447z"/>
	</g>
</mask>
<g class="st18">
	<path class="st1" d="M-4,431h42v41.7H-4V431z"/>
	<g>
		<path id="ama_1_" class="st5" d="M4,437h26c2.2,0,4,1.9,4,4.3v20.4c0,2.4-1.8,4.3-4,4.3H4c-2.2,0-4-1.9-4-4.3v-20.4
			C0,438.9,1.8,437,4,437z"/>
	</g>
	<g>
		<path id="amb_1_" class="st5" d="M6,441h22c1.1,0,2,0.9,2,2v17c0,1.1-0.9,2-2,2H6c-1.1,0-2-0.9-2-2v-17C4,441.9,4.9,441,6,441z"/>
	</g>
	<path class="st7" d="M20.7,451c0.6-1.3,2-1.8,3.3-1.3c1.3,0.6,1.8,2,1.3,3.3c-0.6,1.3-2,1.8-3.3,1.3c-0.6-0.3-1-0.7-1.3-1.3H16v-2
		H20.7z"/>
	<g>
		<path id="amc_1_" class="st19" d="M4,454h4v3H4V454z"/>
	</g>
	<g>
		<path id="amd_1_" class="st19" d="M4,447h4v3H4V447z"/>
	</g>
</g>
<title>attachment_icon</title>
<g>
	<path class="st1" d="M-9,457h42v42H-9V457z"/>
	<path class="st7" d="M2,480.8l13-13.3c1.9-2,5.1-2,7.1-0.1c0,0,0.1,0.1,0.1,0.1c2,2,2,5.3,0,7.3L9.8,487.5
		c-1.2,1.2-3.2,1.3-4.4,0.1c0,0,0,0-0.1-0.1c-1.2-1.3-1.2-3.3,0-4.6l11.5-11.8l1.3,1.4L6.7,484.3c-0.5,0.5-0.5,1.3,0,1.8
		c0.5,0.5,1.3,0.5,1.8,0c0,0,0,0,0,0l12.4-12.7c1.2-1.3,1.2-3.3,0-4.6c-1.2-1.2-3.2-1.3-4.4-0.1c0,0,0,0-0.1,0.1l-13,13.3
		c-2,2-2,5.3,0,7.3c2,2,5.2,2,7.2,0l12.1-12.4l1.3,1.4l-12.1,12.4c-2.6,2.7-7,2.8-9.7,0.2C2.2,491,2.1,491,2,490.9
		C-0.7,488.1-0.7,483.6,2,480.8z"/>
</g>
<title>filter_icon</title>
<path class="st20" d="M25.5,510.9c-2.2-3.2-3.3-5.1-3.8-7.1l-1.2-4.8l-1.2,4.8c-0.5,2-1.6,3.9-3.8,7.1c-3.8,5.3-4.5,6.6-4.5,9
	c0,5.1,4.3,9.3,9.6,9.1c5.2,0.2,9.5-3.9,9.5-9.1C30,517.5,29.3,516.2,25.5,510.9z"/>
<title>filter_icon</title>
<path class="st21" d="M25.5,552.9c-2.2-3.2-3.3-5.1-3.8-7.1l-1.2-4.8l-1.2,4.8c-0.5,2-1.6,3.9-3.8,7.1c-3.8,5.3-4.5,6.6-4.5,9
	c0,5.1,4.3,9.3,9.6,9.1c5.2,0.2,9.5-3.9,9.5-9.1C30,559.5,29.3,558.2,25.5,552.9z"/>
<title>filter_icon</title>
<g>
	<defs>
		<filter id="Adobe_OpacityMaskFilter_4_" filterUnits="userSpaceOnUse" x="0" y="576.8" width="21" height="32.2">
			<feColorMatrix  type="matrix" values="1 0 0 0 0  0 1 0 0 0  0 0 1 0 0  0 0 0 1 0"/>
		</filter>
	</defs>
	<mask maskUnits="userSpaceOnUse" x="0" y="576.8" width="21" height="32.2" id="apb">
		<g class="st22">
			<path id="apa" class="st3" d="M0,577h21v32H0V577z"/>
		</g>
	</mask>
	<path class="st23" d="M15.5,589.3c-2.2-3.3-3.3-5.2-3.8-7.3l-1.2-5l-1.2,5c-0.5,2.1-1.6,4-3.8,7.3c-3.8,5.5-4.5,6.8-4.5,9.3
		c0,5.3,4.3,9.6,9.6,9.4c5.2,0.2,9.4-4,9.4-9.4C20,596.1,19.3,594.8,15.5,589.3z"/>
</g>
<title>icalendar_icon</title>
<path class="st9" d="M31,619h4c1.1,0,2,0.9,2,2v20c0,2.2-1.8,4-4,4c0,0,0,0,0,0H9c-2.2,0-4-1.8-4-4c0,0,0,0,0,0v-20c0-1.1,0.9-2,2-2
	h4v-3h4v3h12v-3h4V619z M7,625h28v16c0,1.1-0.9,2-2,2H9c-1.1,0-2-0.9-2-2V625z M14,631.2v-1.1c1-0.1,1.7-0.3,2.1-0.5
	c0.4-0.2,0.7-0.8,0.9-1.6h1v11h-1.6v-7.8H14z M29,628v1.2c-0.2,0.4-0.6,1-1.2,1.8c-0.6,0.9-1.1,1.8-1.6,2.8c-0.5,1-1.6,4-1.6,5.2
	h-1.8c0.3-2.1,1.1-4.3,2.3-6.4c0.7-1.2,1.4-2.3,2.3-3.2H21V628H29z"/>
<title>icalendar_icon</title>
<path class="st10" d="M31,661h4c1.1,0,2,0.9,2,2v20c0,2.2-1.8,4-4,4c0,0,0,0,0,0H9c-2.2,0-4-1.8-4-4c0,0,0,0,0,0v-20
	c0-1.1,0.9-2,2-2h4v-3h4v3h12v-3h4V661z M7,667h28v16c0,1.1-0.9,2-2,2H9c-1.1,0-2-0.9-2-2V667z M14,673.2v-1.1
	c1-0.1,1.7-0.3,2.1-0.5c0.4-0.2,0.7-0.8,0.9-1.6h1v11h-1.6v-7.8H14z M29,670v1.2c-0.2,0.4-0.6,1-1.2,1.8c-0.6,0.9-1.1,1.8-1.6,2.8
	c-0.5,1-1.6,4-1.6,5.2h-1.8c0.3-2.1,1.1-4.3,2.3-6.4c0.7-1.2,1.4-2.3,2.3-3.2H21V670H29z"/>
<title>karma_icon</title>
<g>
	<path class="st1" d="M-2,687h42v42H-2V687z"/>
	<g transform="translate(1 1)">
		<path class="st24" d="M3.1,708l10-3l10,13.2l10-22.1"/>
		<circle class="st25" cx="22" cy="717" r="3"/>
		<circle class="st25" cx="33" cy="696" r="3"/>
		<circle class="st25" cx="13" cy="705" r="3"/>
		<circle class="st25" cx="3" cy="708" r="3"/>
	</g>
</g>
<title>icon-features-filters</title>
<path class="st26" d="M26.9,731l-18.5,0c-1.9,0-3.4,1.5-3.4,3.3v16.4c0,1.8,1.5,3.3,3.4,3.3l18.5,0c1.1,0,2.1-0.5,2.7-1.4l7.4-10.1
	l-7.4-10.1C29,731.5,28,731,26.9,731z"/>
<title>icon-features-filters</title>
<path class="st27" d="M26.9,773l-18.5,0c-1.9,0-3.4,1.5-3.4,3.3v16.4c0,1.8,1.5,3.3,3.4,3.3l18.5,0c1.1,0,2.1-0.5,2.7-1.4l7.4-10.1
	l-7.4-10.1C29,773.5,28,773,26.9,773z"/>
<title>label_icon</title>
<defs>
	<filter id="Adobe_OpacityMaskFilter_5_" filterUnits="userSpaceOnUse" x="-5" y="794" width="42" height="42">
		<feColorMatrix  type="matrix" values="1 0 0 0 0  0 1 0 0 0  0 0 1 0 0  0 0 0 1 0"/>
	</filter>
</defs>
<mask maskUnits="userSpaceOnUse" x="-5" y="794" width="42" height="42" id="avb">
	<g class="st28">
		<path id="ava" class="st3" d="M0,810c0-2.2,1.8-4,4-4c0,0,0,0,0,0h17.5c1.1,0,2.5,0.7,3.2,1.6l7.3,9.9l-7.3,9.9
			c-0.7,0.9-2.1,1.6-3.2,1.6H4c-2.2,0-4-1.8-4-4V810z"/>
	</g>
</mask>
<g class="st29">
	<path class="st1" d="M-5,794h42v42H-5V794z"/>
	<g>
		<path id="ava_1_" class="st30" d="M0,810c0-2.2,1.8-4,4-4c0,0,0,0,0,0h17.5c1.1,0,2.5,0.7,3.2,1.6l7.3,9.9l-7.3,9.9
			c-0.7,0.9-2.1,1.6-3.2,1.6H4c-2.2,0-4-1.8-4-4V810z"/>
	</g>
</g>
<title>location_icon</title>
<g>
	<path class="st20" d="M10,845.2c0,8.4,11,20.8,11,20.8s11-12.4,11-20.8c0-6.2-4.9-11.2-11-11.2S10,839,10,845.2z"/>
	<path class="st20" d="M21,850c-2.8,0-5-2.2-5-5s2.2-5,5-5s5,2.2,5,5S23.8,850,21,850z"/>
</g>
<title>location_icon</title>
<g>
	<path class="st21" d="M10,887.2c0,8.4,11,20.8,11,20.8s11-12.4,11-20.8c0-6.2-4.9-11.2-11-11.2S10,881,10,887.2z"/>
	<path class="st21" d="M21,892c-2.8,0-5-2.2-5-5s2.2-5,5-5s5,2.2,5,5S23.8,892,21,892z"/>
</g>
<title>icon-features-notes</title>
<path class="st9" d="M37,939v-13c0-2.2-1.8-4-4-4H9c-2.2,0-4,1.8-4,4c0,0,0,0,0,0v13c0,2.2,1.8,4,4,4h16l7,5h1v-5
	C35.2,943,37,941.2,37,939z M7,926c0-1.1,0.9-2,2-2h24c1.1,0,2,0.9,2,2v13c0,1.1-0.9,2-2,2H9c-1.1,0-2-0.9-2-2V926z"/>
<title>icon-features-notes</title>
<path class="st10" d="M37,981v-13c0-2.2-1.8-4-4-4H9c-2.2,0-4,1.8-4,4c0,0,0,0,0,0v13c0,2.2,1.8,4,4,4h16l7,5h1v-5
	C35.2,985,37,983.2,37,981z M7,968c0-1.1,0.9-2,2-2h24c1.1,0,2,0.9,2,2v13c0,1.1-0.9,2-2,2H9c-1.1,0-2-0.9-2-2V968z"/>
<title>icon-features-notifications</title>
<g>
	<path class="st20" d="M7,1029h28v-2c-2.5-4-4-8.8-4-14c0-5.5-4.5-10-10-10s-10,4.5-10,10c0,5.2-1.5,10-4,14V1029z"/>
	<path class="st9" d="M25,1031c0,2.2-1.8,4-4,4s-4-1.8-4-4H25z"/>
</g>
<title>icon-features-notifications</title>
<g>
	<path class="st21" d="M7,1071h28v-2c-2.5-4-4-8.8-4-14c0-5.5-4.5-10-10-10s-10,4.5-10,10c0,5.2-1.5,10-4,14V1071z"/>
	<path class="st10" d="M25,1073c0,2.2-1.8,4-4,4s-4-1.8-4-4H25z"/>
</g>
<title>notifications_icon</title>
<g>
	<path class="st1" d="M-8,1072h42v42H-8V1072z"/>
	<path class="st24" d="M1,1105h24v-2.7c-2.1-3.4-3.4-7.5-3.4-11.8c0-4.7-3.8-8.5-8.6-8.5s-8.6,3.8-8.6,8.5c0,4.4-1.3,8.4-3.4,11.8
		V1105z"/>
	<path class="st7" d="M13,1110.5c-1.9,0-3.5-1.6-3.5-3.5c0,0,0,0,0,0h7C16.5,1108.9,14.9,1110.5,13,1110.5z"/>
</g>
<title>icon-features-priority</title>
<path class="st9" d="M7,1127v-9h15l2,2h11v18H22l-2-2H9v10H7V1127z M23,1122h10v14H23l-2-2H9v-14h12L23,1122z"/>
<title>icon-features-priority</title>
<path class="st10" d="M7,1169v-9h15l2,2h11v18H22l-2-2H9v10H7V1169z M23,1164h10v14H23l-2-2H9v-14h12L23,1164z"/>
<title>priority_icon</title>
<g>
	<path class="st1" d="M-7,1185h42v42H-7V1185z"/>
	<path class="st7" d="M0,1197c0-1.1,0.9-2,2-2h13l2,2h9c1.1,0,2,0.9,2,2v14c0,1.1-0.9,2-2,2c0,0,0,0,0,0H15l-2-2H2v10H0V1197z
		 M16,1199h10v14H16l-2-2H2v-14h12L16,1199z"/>
</g>
<title>icon-features-recurring</title>
<g>
	<path class="st9" d="M14,1248v2c0,2.8,2.2,5,5,5c0,0,0,0,0,0h8h-1v-1.5h-7c-1.9,0-3.5-1.6-3.5-3.5v-2h3.3l-4-4l-4,4H14z M28,1248
		v-2c0-2.8-2.2-5-5-5c0,0,0,0,0,0h-6v1.5h6c1.9,0,3.5,1.6,3.5,3.5v2H28z M32,1231h5c1.1,0,2,0.9,2,2v23c0,2.2-1.8,4-4,4c0,0,0,0,0,0
		H7c-2.2,0-4-1.8-4-4c0,0,0,0,0,0v-23c0-1.1,0.9-2,2-2h5v-3h4v3h14v-3h4V1231z M5,1238h32v18c0,1.1-0.9,2-2,2H7c-1.1,0-2-0.9-2-2
		V1238z M23.3,1248l4,4l4-4H23.3z"/>
	<path class="st1" d="M3,1247l4-4l4,4H3z"/>
</g>
<title>icon-features-recurring</title>
<g>
	<path class="st10" d="M14,1290v2c0,2.8,2.2,5,5,5c0,0,0,0,0,0h8h-1v-1.5h-7c-1.9,0-3.5-1.6-3.5-3.5v-2h3.3l-4-4l-4,4H14z M28,1290
		v-2c0-2.8-2.2-5-5-5c0,0,0,0,0,0h-6v1.5h6c1.9,0,3.5,1.6,3.5,3.5v2H28z M32,1273h5c1.1,0,2,0.9,2,2v23c0,2.2-1.8,4-4,4c0,0,0,0,0,0
		H7c-2.2,0-4-1.8-4-4c0,0,0,0,0,0v-23c0-1.1,0.9-2,2-2h5v-3h4v3h14v-3h4V1273z M5,1280h32v18c0,1.1-0.9,2-2,2H7c-1.1,0-2-0.9-2-2
		V1280z M23.3,1290l4,4l4-4H23.3z"/>
	<path class="st1" d="M3,1289l4-4l4,4H3z"/>
</g>
<title>repeat_dates_icon</title>
<g>
	<path class="st1" d="M-5,1300h42v42H-5V1300z"/>
	<g>
		<path class="st7" d="M27,1309h3c1.1,0,2,0.9,2,2v20c0,2.2-1.8,4-4,4c0,0,0,0,0,0H4c-2.2,0-4-1.8-4-4c0,0,0,0,0,0v-20
			c0-1.1,0.9-2,2-2h3v-2h4v2h14v-2h4V1309z M2,1315h28v16c0,1.1-0.9,2-2,2H4c-1.1,0-2-0.9-2-2V1315z"/>
		<path class="st7" d="M20.5,1323h-2l2.5,3l2.5-3h-2v-0.5c0-1.9-1.6-3.5-3.5-3.5h-5v1h5c1.4,0,2.5,1.1,2.5,2.5V1323z M12.5,1325h2
			l-2.5-3l-2.5,3h2v0.5c0,1.9,1.6,3.5,3.5,3.5h5v-1h-5c-1.4,0-2.5-1.1-2.5-2.5V1325z"/>
	</g>
</g>
<title>icon-features-reminders</title>
<path class="st9" d="M8.9,1367l-2.9,2.9l2.1,2.1l2.9-2.9L8.9,1367z M33.1,1367l-2.1,2.1l2.9,2.9l2.1-2.1L33.1,1367z M21,1372
	c7.7,0,14-6.3,14-14s-6.3-14-14-14s-14,6.3-14,14S13.3,1372,21,1372z M21,1370c6.6,0,12-5.4,12-12s-5.4-12-12-12s-12,5.4-12,12
	S14.4,1370,21,1370z M15,1341.8c-1.1-0.5-2.2-0.8-3.4-0.8c-4.2,0-7.6,3.4-7.6,7.6c0,1.2,0.3,2.4,0.8,3.4L15,1341.8z M30.4,1341
	c4.2,0,7.6,3.4,7.6,7.6c0,1.2-0.3,2.4-0.8,3.4L27,1341.8C28.1,1341.3,29.2,1341,30.4,1341z M27,1360h-8v-9h2v7.2h6V1360z"/>
<title>icon-features-reminders</title>
<path class="st10" d="M8.9,1409l-2.9,2.9l2.1,2.1l2.9-2.9L8.9,1409z M33.1,1409l-2.1,2.1l2.9,2.9l2.1-2.1L33.1,1409z M21,1414
	c7.7,0,14-6.3,14-14s-6.3-14-14-14s-14,6.3-14,14S13.3,1414,21,1414z M21,1412c6.6,0,12-5.4,12-12s-5.4-12-12-12s-12,5.4-12,12
	S14.4,1412,21,1412z M15,1383.8c-1.1-0.5-2.2-0.8-3.4-0.8c-4.2,0-7.6,3.4-7.6,7.6c0,1.2,0.3,2.4,0.8,3.4L15,1383.8z M30.4,1383
	c4.2,0,7.6,3.4,7.6,7.6c0,1.2-0.3,2.4-0.8,3.4L27,1383.8C28.1,1383.3,29.2,1383,30.4,1383z M27,1402h-8v-9h2v7.2h6V1402z"/>
<title>reminders_icon</title>
<g>
	<path class="st1" d="M-4,1413h42v42H-4V1413z"/>
	<path class="st7" d="M4.9,1445l-2.9,2.9l2.1,2.1l2.9-2.9L4.9,1445z M29.1,1445l-2.1,2.1l2.9,2.9l2.1-2.1
		C32,1447.9,29.1,1445,29.1,1445z M17,1450c7.7,0,14-6.3,14-14s-6.3-14-14-14s-14,6.3-14,14S9.3,1450,17,1450z M17,1448
		c6.6,0,12-5.4,12-12s-5.4-12-12-12s-12,5.4-12,12S10.4,1448,17,1448z M11,1419.8c-1.1-0.5-2.2-0.8-3.4-0.8c-4.2,0-7.6,3.4-7.6,7.6
		c0,0,0,0,0,0c0,1.2,0.3,2.4,0.8,3.4L11,1419.8z M26.4,1419c4.2,0,7.6,3.4,7.6,7.6c0,1.2-0.3,2.4-0.8,3.4L23,1419.8
		C24.1,1419.3,25.2,1419,26.4,1419z M23,1438h-8v-9h2v7.2h6V1438z"/>
</g>
<title>search_icon</title>
<path class="st9" d="M27.5,1475.7l7.5,7.5l-1.8,1.8l-7.5-7.5c-2,1.6-4.6,2.5-7.2,2.5c-6.4,0-11.5-5.2-11.5-11.5s5.1-11.5,11.5-11.5
	s11.5,5.2,11.5,11.5C30,1471.2,29,1473.7,27.5,1475.7z M18.5,1478c5.2,0,9.5-4.3,9.5-9.5s-4.3-9.5-9.5-9.5s-9.5,4.3-9.5,9.5
	S13.3,1478,18.5,1478z"/>
<title>search_icon</title>
<path class="st10" d="M27.5,1517.7l7.5,7.5l-1.8,1.8l-7.5-7.5c-2,1.6-4.6,2.5-7.2,2.5c-6.4,0-11.5-5.2-11.5-11.5s5.1-11.5,11.5-11.5
	s11.5,5.2,11.5,11.5C30,1513.2,29,1515.7,27.5,1517.7z M18.5,1520c5.2,0,9.5-4.3,9.5-9.5s-4.3-9.5-9.5-9.5s-9.5,4.3-9.5,9.5
	S13.3,1520,18.5,1520z"/>
<title>icon-features-share</title>
<g>
	<path class="st9" d="M11,1553c4.4,0,8-3.6,8-8s-3.6-8-8-8s-8,3.6-8,8S6.6,1553,11,1553z M11,1551c3.3,0,6-2.7,6-6s-2.7-6-6-6
		s-6,2.7-6,6S7.7,1551,11,1551z M31,1558c4.4,0,8-3.6,8-8s-3.6-8-8-8s-8,3.6-8,8S26.6,1558,31,1558z M31,1556c3.3,0,6-2.7,6-6
		s-2.7-6-6-6s-6,2.7-6,6S27.7,1556,31,1556z M16,1573c4.4,0,8-3.6,8-8s-3.6-8-8-8s-8,3.6-8,8S11.6,1573,16,1573z M16,1571
		c3.3,0,6-2.7,6-6s-2.7-6-6-6s-6,2.7-6,6S12.7,1571,16,1571z"/>
	<path class="st31" d="M27.4,1563.9c0.6-0.4,1.1-0.9,1.6-1.3c0.5-0.5,0.9-1,1.3-1.6 M24.8,1541.3c-1.3-0.6-2.6-0.9-4-1.1
		 M4.8,1554.7c0.2,1.4,0.5,2.7,1.1,4"/>
</g>
<title>icon-features-share</title>
<g>
	<path class="st10" d="M11,1595c4.4,0,8-3.6,8-8s-3.6-8-8-8s-8,3.6-8,8S6.6,1595,11,1595z M11,1593c3.3,0,6-2.7,6-6s-2.7-6-6-6
		s-6,2.7-6,6S7.7,1593,11,1593z M31,1600c4.4,0,8-3.6,8-8s-3.6-8-8-8s-8,3.6-8,8S26.6,1600,31,1600z M31,1598c3.3,0,6-2.7,6-6
		s-2.7-6-6-6s-6,2.7-6,6S27.7,1598,31,1598z M16,1615c4.4,0,8-3.6,8-8s-3.6-8-8-8s-8,3.6-8,8S11.6,1615,16,1615z M16,1613
		c3.3,0,6-2.7,6-6s-2.7-6-6-6s-6,2.7-6,6S12.7,1613,16,1613z"/>
	<path class="st32" d="M27.4,1605.9c0.6-0.4,1.1-0.9,1.6-1.3c0.5-0.5,0.9-1,1.3-1.6 M24.8,1583.3c-1.3-0.6-2.6-0.9-4-1.1
		 M4.8,1596.7c0.2,1.4,0.5,2.7,1.1,4"/>
</g>
<title>icon-features-stats</title>
<g transform="translate(3 7)">
	<path class="st33" d="M3.1,1633l10-3l10,13.2l10-22.1"/>
	<circle class="st34" cx="22.5" cy="1642.5" r="3.5"/>
	<circle class="st35" cx="33" cy="1621" r="3"/>
	<circle class="st35" cx="13" cy="1630" r="3"/>
	<circle class="st35" cx="3" cy="1633" r="3"/>
</g>
<title>icon-features-stats</title>
<g transform="translate(3 7)">
	<path class="st36" d="M3.1,1675l10-3l10,13.2l10-22.1"/>
	<circle class="st37" cx="22.5" cy="1684.5" r="3.5"/>
	<circle class="st38" cx="33" cy="1663" r="3"/>
	<circle class="st38" cx="13" cy="1672" r="3"/>
	<circle class="st38" cx="3" cy="1675" r="3"/>
</g>
<title>icon-features-subprojects</title>
<g>
	<path class="st9" d="M37,1719v-7H7v-4c0-1.1,0.9-2,2-2h28c1.1,0,2,0.9,2,2v20c0,1.4-0.8,2.8-2,3.5V1719L37,1719z"/>
	<path class="st9" d="M33,1720v16c0,1.1-0.9,2-2,2H7c-1.1,0-2-0.9-2-2v-16H33z M3,1716c0-1.1,0.9-2,2-2h28c1.1,0,2,0.9,2,2v20
		c0,2.2-1.8,4-4,4c0,0,0,0,0,0H7c-2.2,0-4-1.8-4-4c0,0,0,0,0,0V1716z M8,1724h22v2H8V1724z M12,1728h18v2H12V1728z M12,1732h18v2H12
		V1732z"/>
</g>
<title>icon-features-subprojects</title>
<g>
	<path class="st10" d="M37,1761v-7H7v-4c0-1.1,0.9-2,2-2h28c1.1,0,2,0.9,2,2v20c0,1.4-0.8,2.8-2,3.5V1761L37,1761z"/>
	<path class="st10" d="M33,1762v16c0,1.1-0.9,2-2,2H7c-1.1,0-2-0.9-2-2v-16H33z M3,1758c0-1.1,0.9-2,2-2h28c1.1,0,2,0.9,2,2v20
		c0,2.2-1.8,4-4,4c0,0,0,0,0,0H7c-2.2,0-4-1.8-4-4c0,0,0,0,0,0V1758z M8,1766h22v2H8V1766z M12,1770h18v2H12V1770z M12,1774h18v2H12
		V1774z"/>
</g>
<title>icon-features-subtasks</title>
<path class="st39" d="M35,1789H7c0,0,0,0,0,0c-2.2,0-4,1.8-4,4v28c0,0,0,0,0,0c0,2.2,1.8,4,4,4h28c0,0,0,0,0,0c2.2,0,4-1.8,4-4v-28
	c0,0,0,0,0,0C39,1790.8,37.2,1789,35,1789z M37,1821c0,1.1-0.9,2-2,2H7c-1.1,0-2-0.9-2-2c0,0,0,0,0,0v-28c0-1.1,0.9-2,2-2h28
	c1.1,0,2,0.9,2,2V1821z"/>
<title>icon-features-subtasks</title>
<path class="st10" d="M3,1835c0-2.2,1.8-4,4-4c0,0,0,0,0,0h28c2.2,0,4,1.8,4,4c0,0,0,0,0,0v28c0,2.2-1.8,4-4,4c0,0,0,0,0,0H7
	c-2.2,0-4-1.8-4-4c0,0,0,0,0,0V1835z M5,1835c0-1.1,0.9-2,2-2h28c1.1,0,2,0.9,2,2v28c0,1.1-0.9,2-2,2H7c-1.1,0-2-0.9-2-2
	c0,0,0,0,0,0V1835z M10.4,1849.8l2.1-2.1l5,5l11.7-11.7l2.1,2.1l-13.8,13.8l-1.1-1.1L10.4,1849.8L10.4,1849.8z"/>
<title>icon-features-sync</title>
<g>
	<path class="st9" d="M34,1891v-3.7c0-5.1-4.2-9.3-9.3-9.3c0,0,0,0,0,0H13v2h12c3.9,0,7,3.1,7,7l0,0v4H34z M17.3,1904
		c-5.1,0-9.3-4.2-9.3-9.3c0,0,0,0,0,0v-5.7h2v6c0,3.9,3.1,7,7,7l0,0h13v2H17.3z"/>
	<path class="st9" d="M27,1891l6,6l6-6H27z M3,1891l6-6l6,6H3z"/>
</g>
<title>icon-features-sync</title>
<g>
	<path class="st10" d="M34,1933v-3.7c0-5.1-4.2-9.3-9.3-9.3c0,0,0,0,0,0H13v2h12c3.9,0,7,3.1,7,7l0,0v4H34z M17.3,1946
		c-5.1,0-9.3-4.2-9.3-9.3c0,0,0,0,0,0v-5.7h2v6c0,3.9,3.1,7,7,7l0,0h13v2H17.3z"/>
	<path class="st10" d="M27,1933l6,6l6-6H27z M3,1933l6-6l6,6H3z"/>
</g>
<title>sync_icon</title>
<g>
	<path class="st7" d="M30,1967v-3.7c0-5.1-4.2-9.3-9.3-9.3c0,0,0,0,0,0H9v2h12c3.9,0,7,3.1,7,7l0,0v4H30z M13.3,1978
		c-5.1,0-9.3-4.2-9.3-9.3c0,0,0,0,0,0v-5.7h2v6c0,3.9,3.1,7,7,7l0,0h13v2H13.3z"/>
	<path class="st7" d="M24,1965l5,6l5-6 M0,1966l5-6l5,6"/>
</g>
<title>new</title>
<path class="st40" d="M15,2008c-8.3,0-15-6.7-15-15s6.7-15,15-15c8.3,0,15,6.7,15,15S23.3,2008,15,2008z M27.6,1995.1
	c-0.4-0.1-4-1.2-8-0.5c1.7,4.6,2.4,8.4,2.5,9.1C25.1,2001.7,27.1,1998.6,27.6,1995.1L27.6,1995.1z M20,2004.8
	c-0.2-1.1-0.9-5-2.7-9.7c0,0-0.1,0-0.1,0c-7.2,2.5-9.8,7.5-10.1,8c2.2,1.8,5,2.7,7.9,2.7C16.7,2005.8,18.4,2005.5,20,2004.8
	L20,2004.8z M5.5,2001.6c0.3-0.5,3.8-6.3,10.4-8.5c0.2-0.1,0.3-0.1,0.5-0.2c-0.3-0.7-0.7-1.5-1-2.2c-6.4,1.9-12.6,1.8-13.2,1.8
	C2.1,1995.9,3.3,1999.1,5.5,2001.6L5.5,2001.6z M2.5,1990.4c0.6,0,5.9,0,11.8-1.6c-1.4-2.6-3-5-4.8-7.4
	C5.9,1983.1,3.3,1986.5,2.5,1990.4L2.5,1990.4z M12,1980.6c0.4,0.5,2.7,3.6,4.8,7.5c4.6-1.7,6.5-4.3,6.7-4.6
	c-2.3-2.1-5.4-3.2-8.5-3.2C14,1980.2,13,1980.3,12,1980.6L12,1980.6z M24.9,1984.9c-0.3,0.4-2.4,3.1-7.2,5.1
	c0.4,0.8,0.8,1.7,1.1,2.5c4.3-0.5,8.5,0.3,8.9,0.4C27.8,1990,26.8,1987.2,24.9,1984.9z"/>
<title>facebook_icon</title>
<path class="st41" d="M0,2011c0-1.7,1.3-3,3-3h22c1.7,0,3,1.3,3,3v22c0,1.7-1.3,3-3,3H3c-1.7,0-3-1.3-3-3V2011z M15,2036v-11h-3.7
	v-4H15v-3.2c0-3.6,2.2-5.6,5.4-5.6c1.5,0,2.9,0.1,3.3,0.2v3.6h-2.2c-1.8,0-2.1,0.8-2.1,2.1v2.9h4.2l-0.3,2.5L23,2025h-3.6v11H15z"/>
<title>new</title>
<g>
	<path class="st42" d="M1,2036h26c0.6,0,1,0.4,1,1v26c0,0.6-0.4,1-1,1H1c-0.6,0-1-0.4-1-1v-26C0,2036.4,0.4,2036,1,2036z"/>
	<path class="st43" d="M11,2047h6v6h-6V2047z"/>
	<path class="st3" d="M5,2041h6v17H5V2041z"/>
	<path class="st44" d="M11,2041h11v6H11V2041z"/>
</g>
<title>google_icon</title>
<path class="st45" d="M10.2,2073v3.6H16c-0.2,1.5-1.7,4.5-5.8,4.5c-3.5,0-6.3-3-6.3-6.6s2.8-6.6,6.3-6.6c2,0,3.3,0.9,4.1,1.6
	l2.8-2.7c-1.8-1.7-4.1-2.7-6.8-2.7c-5.6,0-10.2,4.7-10.2,10.5s4.6,10.5,10.2,10.5c5.9,0,9.8-4.3,9.8-10.3c0-0.7-0.1-1.2-0.2-1.7
	H10.2z M32,2073h-3v-3h-3v3h-3v3h3v3h3v-3h3V2073z"/>
<title>Rectangle 202</title>
<path class="st46" d="M5.7,2097H3v11.5c0,0.8,0.7,1.5,1.5,1.5h19c0.8,0,1.5-0.7,1.5-1.5V2097h-2.7c0.2,0.7,0.3,1.4,0.3,2.1
	c0,4.7-3.8,8.6-8.6,8.6s-8.6-3.8-8.6-8.6C5.4,2098.4,5.5,2097.7,5.7,2097L5.7,2097z M0,2088c0-1.7,1.3-3,3-3h22c1.7,0,3,1.3,3,3v22
	c0,1.7-1.3,3-3,3H3c-1.7,0-3-1.3-3-3V2088z M19,2089.5c0-0.8,0.7-1.5,1.5-1.5h3c0.8,0,1.5,0.7,1.5,1.5v3c0,0.8-0.7,1.5-1.5,1.5h-3
	c-0.8,0-1.5-0.7-1.5-1.5V2089.5z M14,2104.5c3,0,5.5-2.5,5.5-5.5s-2.5-5.5-5.5-5.5s-5.5,2.5-5.5,5.5S11,2104.5,14,2104.5z"/>
<title>Fill 8</title>
<path class="st47" d="M2.1,2113c-1.1,0-2.1,0.9-2.1,2v24c0,1.1,0.9,2,2.1,2h23.9c1.1,0,2.1-0.9,2.1-2v-24c0-1.1-0.9-2-2.1-2H2.1z
	 M6,2116.9c1.3,0,2.4,1.1,2.4,2.4c0,1.3-1.1,2.4-2.5,2.3c-1.3,0-2.3-1.1-2.3-2.3C3.6,2117.9,4.7,2116.9,6,2116.9
	C6,2116.9,6,2116.9,6,2116.9L6,2116.9z M4,2123.5h4v13.5H4V2123.5z M15,2123.5v1.8c0.6-1.1,2-2.2,4-2.2c4.2,0,5,2.8,5,6.4v7.5h-4
	v-6.6c0-1.6-0.2-3.5-2.3-3.5c-2.2,0-2.5,1.7-2.7,3.4v6.8h-4v-13.5H15L15,2123.5z"/>
<title>Fill 4</title>
<path class="st48" d="M0,2156c0,6.4,4,11.8,9.5,14c-0.1-1.2-0.3-3,0.1-4.3c0.3-1.2,1.8-7.5,1.8-7.5s-0.4-0.9-0.4-2.2
	c0-2.1,1.2-3.6,2.7-3.6c1.3,0,1.9,1,1.9,2.1c0,1.3-0.8,3.2-1.2,5c-0.4,1.5,0.7,2.7,2.2,2.7c2.7,0,4.7-2.8,4.7-6.9
	c0-3.6-2.6-6.1-6.3-6.1c-4.3,0-6.8,3.2-6.8,6.5c0,1.3,0.5,2.7,1.1,3.4c0.1,0.1,0.1,0.3,0.1,0.4c-0.1,0.5-0.4,1.5-0.4,1.7
	c-0.1,0.3-0.2,0.3-0.5,0.2c-1.9-0.9-3-3.6-3-5.8c0-4.7,3.4-9.1,9.9-9.1c5.2,0,9.2,3.7,9.2,8.7c0,5.2-3.3,9.3-7.8,9.3
	c-1.5,0-2.9-0.8-3.4-1.7c0,0-0.8,2.9-0.9,3.6c-0.3,1.3-1.3,2.9-1.9,3.9c1.4,0.4,2.9,0.7,4.4,0.7c8.3,0,15-6.7,15-15
	c0-8.3-6.7-15-15-15C6.7,2141,0,2147.7,0,2156z"/>
<title>twitter_icon</title>
<path class="st49" d="M25,2173.4c-0.9,0.4-1.9,0.7-2.9,0.8c1.1-0.6,1.9-1.6,2.3-2.8c-1,0.6-2.1,1-3.3,1.2c-1.9-2.1-5.2-2.2-7.2-0.2
	c-1,1-1.6,2.3-1.6,3.7c0,0.4,0,0.8,0.1,1.2c-4.1-0.2-8-2.2-10.6-5.4c-0.5,0.8-0.7,1.7-0.7,2.6c0,1.8,0.9,3.3,2.3,4.3
	c-0.8,0-1.6-0.2-2.3-0.6v0.1c0,2.4,1.7,4.5,4.1,5c-0.8,0.2-1.5,0.2-2.3,0.1c0.7,2.1,2.6,3.5,4.8,3.6c-1.8,1.4-4.1,2.2-6.4,2.2
	c-0.4,0-0.8,0-1.2-0.1c2.3,1.5,5.1,2.3,7.9,2.3c9.4,0,14.6-7.8,14.6-14.6c0-0.2,0-0.4,0-0.7C23.4,2175.3,24.3,2174.4,25,2173.4"/>
<title>Fill 25</title>
<linearGradient id="SVGID_1_" gradientUnits="userSpaceOnUse" x1="-884.9375" y1="2244.5217" x2="-884.9375" y2="2243.5217" gradientTransform="matrix(32 0 0 -23 28334 53816)">
	<stop  offset="0" style="stop-color:#E52D25"/>
	<stop  offset="1" style="stop-color:#C01A1D"/>
</linearGradient>
<path class="st50" d="M12.7,2207.7v-9.2l8.6,4.6L12.7,2207.7L12.7,2207.7z M31.7,2197c0,0-0.3-2.3-1.3-3.2c-1.2-1.3-2.6-1.3-3.2-1.4
	C22.7,2192,16,2192,16,2192h0c0,0-6.7,0-11.2,0.3c-0.6,0.1-2,0.1-3.2,1.4c-1,1-1.3,3.2-1.3,3.2s-0.3,2.6-0.3,5.3v2.5
	c0,2.6,0.3,5.3,0.3,5.3s0.3,2.3,1.3,3.2c1.2,1.3,2.8,1.3,3.5,1.4c2.6,0.3,10.9,0.3,10.9,0.3s6.7,0,11.2-0.3c0.6-0.1,2-0.1,3.2-1.4
	c1-1,1.3-3.2,1.3-3.2s0.3-2.6,0.3-5.3v-2.5C32,2199.6,31.7,2197,31.7,2197L31.7,2197z"/>
<title>default_video</title>
<g>
	<circle class="st3" cx="32" cy="2247" r="32"/>
	<path class="st51" d="M24,2236c0-2.2,1.5-3.1,3.4-1.9l17.1,10.4c1.9,1.1,1.9,3,0,4.1l-17.1,10.4c-1.9,1.1-3.4,0.3-3.4-1.9V2236z"/>
</g>
<title>icon-platforms-android</title>
<path class="st52" d="M24,2298.2v-5.8c0-0.8,0.7-1.5,1.5-1.5s1.5,0.7,1.5,1.5v5.8c0,0.8-0.7,1.5-1.5,1.5S24,2299,24,2298.2z
	 M6.5,2299.7c-0.8,0-1.5-0.7-1.5-1.5v-5.8c0-0.8,0.7-1.5,1.5-1.5c0.8,0,1.5,0.7,1.5,1.5v5.8C8,2299,7.3,2299.7,6.5,2299.7z
	 M20.4,2303v3.5c0,0.7-0.6,1.5-1.6,1.5c-1,0-1.6-0.8-1.6-1.5v-3.5h-2.4v3.5c0,0.7-0.5,1.5-1.6,1.5c-0.9,0-1.6-0.8-1.6-1.5v-3.5h-1.4
	c-0.7,0-1.3-0.5-1.3-1.2V2291h14v10.8c0,0.7-0.6,1.2-1.2,1.2H20.4L20.4,2303z M16,2284.5c1,0,2,0.2,2.9,0.5l1.3-1.9
	c0-0.1,0.1-0.1,0.2-0.1c0.1,0,0.1,0,0.2,0c0.1,0,0.1,0.1,0.1,0.2c0,0.1,0,0.1,0,0.2l-1.3,1.8c2.1,0.9,3.5,2.7,3.7,4.8H9
	c0.2-2.2,1.6-3.9,3.6-4.8l-1.3-1.8c-0.1-0.1-0.1-0.3,0.1-0.3c0,0,0,0,0,0c0.1-0.1,0.2,0,0.3,0.1l0,0l1.3,1.8
	C14,2284.6,15,2284.5,16,2284.5L16,2284.5z M12.3,2287.4c0,0.4,0.3,0.8,0.8,0.8s0.8-0.3,0.8-0.8c0-0.4-0.3-0.8-0.8-0.8
	S12.3,2287,12.3,2287.4z M19,2286.7c-0.4,0-0.8,0.3-0.8,0.8c0,0.4,0.3,0.8,0.8,0.8s0.8-0.3,0.8-0.8C19.8,2287,19.4,2286.7,19,2286.7
	z"/>
<title>icon-platforms-android-phone</title>
<path class="st52" d="M11,2315.1c-1.9-0.1,3-0.1,5.1-0.1c1.9,0,4.8,0.1,4.8,0.1c1.2,0.1,2,0.7,2,1.9v21c0,1.1-0.9,1.9-2,1.9
	c0,0-3.2,0.1-4.8,0.1c-1.7,0-5.1-0.1-5.1-0.1c-1.1,0-2-0.7-2-1.9v-21C9,2315.9,9.9,2315.3,11,2315.1z M10,2317h12v21H10V2317z
	 M14,2339c0-0.1,0.1-0.3,0.3-0.3h3.5c0.1,0,0.3,0.1,0.3,0.3c0,0.1-0.1,0.3-0.3,0.3h-3.5C14.1,2339.2,14,2339.1,14,2339z M14,2316
	c0-0.1,0.1-0.3,0.3-0.3h3.5c0.1,0,0.3,0.1,0.3,0.3c0,0.1-0.1,0.3-0.3,0.3h-3.5C14.1,2316.2,14,2316.1,14,2316z M19.5,2316.3
	c0.1,0,0.3-0.1,0.3-0.3s-0.1-0.3-0.3-0.3s-0.3,0.1-0.3,0.3S19.4,2316.3,19.5,2316.3z"/>
<title>icon-platforms-android-tablet</title>
<path class="st52" d="M9.2,2347c-0.7,0-1.2,0.6-1.2,1.3v22.5c0,0.7,0.5,1.3,1.2,1.3h14.6c0.7,0,1.2-0.6,1.2-1.3v-22.5
	c0-0.7-0.5-1.3-1.2-1.3H9.2z M16.8,2348.5c0,0.2-0.1,0.3-0.3,0.3c-0.2,0-0.3-0.1-0.3-0.3c0-0.2,0.1-0.3,0.3-0.3
	C16.7,2348.1,16.8,2348.3,16.8,2348.5C16.8,2348.5,16.8,2348.5,16.8,2348.5L16.8,2348.5z M9,2370v-20h15v20H9z"/>
<title>icon-platforms-android-wear</title>
<g>
	<path class="st52" d="M23.8,2392.1c-0.5,2.5-2.1,4.7-4.4,5.9v3.7c-0.2,0.7-1,1.2-1.8,1.2h-4.3c-0.8,0-1.6-0.5-1.8-1.2v-3.7
		c-2.8-1.5-4.6-4.4-4.6-7.5c0-3.2,1.8-6.1,4.6-7.5v-3.7c0.2-0.7,1-1.2,1.8-1.2h4.3c0.8,0,1.6,0.5,1.8,1.2v3.7c2.3,1.2,4,3.4,4.4,6
		h0.3c0.1,0,0.3,0.1,0.3,0.2v2.6c0,0.1-0.1,0.2-0.3,0.2H23.8L23.8,2392.1z M15.5,2397.8c4,0,7.3-3.2,7.3-7.3s-3.2-7.3-7.3-7.3
		s-7.3,3.2-7.3,7.3S11.5,2397.8,15.5,2397.8z"/>
	<path class="st52" d="M12.1,2391.2l2,2l0.3,0.3l0.3-0.3l4.4-4.4l-0.5-0.5l-4.4,4.4h0.5l-2-2L12.1,2391.2L12.1,2391.2z"/>
</g>
<title>icon-platforms-apple</title>
<circle class="st52" cx="15.5" cy="2431.5" r="0.5"/>
<path class="st52" d="M11,2414h9v16h-9V2414z"/>
<path class="st52" d="M23,2410H8c-2.8,0-5,2.2-5,5v15c0,2.8,2.2,5,5,5h15c2.8,0,5-2.2,5-5v-15C28,2412.2,25.8,2410,23,2410z
	 M21,2431.7c0,0.7-0.6,1.3-1.3,1.3h-8.4c-0.7,0-1.3-0.6-1.3-1.3v-18.4c0-0.7,0.6-1.3,1.3-1.3h8.4c0.7,0,1.3,0.6,1.3,1.3V2431.7z"/>
<title>icon-platforms-apple-watch</title>
<g>
	<path class="st52" d="M8,2450.5c0-1.4,1.1-2.5,2.5-2.5h10c1.4,0,2.5,1.1,2.5,2.5v10c0,1.4-1.1,2.5-2.5,2.5h-10
		c-1.4,0-2.5-1.1-2.5-2.5V2450.5z M9.3,2459.7v-8.3c0-1.1,0.9-2.1,2.1-2.1h8.3c1.1,0,2.1,0.9,2.1,2.1v8.3c0,1.1-0.9,2.1-2.1,2.1
		h-8.3C10.2,2461.7,9.3,2460.8,9.3,2459.7z M17.6,2443c0.8,0,1.6,0.5,1.8,1.2l1.1,3.8h-10l1.1-3.8c0.2-0.7,1-1.2,1.8-1.2H17.6z
		 M13.4,2468h4.3c0.8,0,1.6-0.5,1.8-1.2l1.1-3.8h-10l1.1,3.8C11.8,2467.5,12.6,2468,13.4,2468z M23.3,2451.8h0.1
		c0.1,0,0.3,0.1,0.3,0.2v2.6c0,0.1-0.1,0.2-0.3,0.2H23v-3.1H23.3z"/>
	<path class="st52" d="M12.1,2456.2l2,2l0.3,0.3l0.3-0.3l4.4-4.4l-0.5-0.5l-4.4,4.4h0.5l-2-2L12.1,2456.2L12.1,2456.2z"/>
</g>
<title>icon-platforms-business</title>
<path class="st52" d="M18,2487h9v8.9c0,1.1-1.1,1.1-1.1,1.1H6.1c0,0-1.1,0-1.1-1.1v-8.9h9v1c0,0.6,0.4,1,1,1h2c0.6,0,1-0.4,1-1V2487
	z M18,2486h9v-3.9c0-1.1-1.1-1.1-1.1-1.1H6.1c0,0-1.1,0-1.1,1.1v3.9h9c0-0.6,0.5-1,1-1h2C17.6,2485,18,2485.4,18,2486z M18.1,2479
	h-4v2h-1v-1.8c0-1.3,1.2-1.3,1.2-1.3h3.7c0,0,1.2,0,1.2,1.3v1.8h-0.9V2479z M15,2486v2h2v-2H15z"/>
<title>icon-platforms-chrome</title>
<path class="st52" d="M15.4,2532c-0.1,0-0.1,0-0.3,0l1-1.8c1.6-2.7,3.2-5.4,4.8-8.1c1.5-2.5,1-5.4-0.9-7.3c-0.3-0.3-0.5-0.5-1-0.8
	h8.7c0.2,0,0.4,0.1,0.4,0.4c2.9,7.5-1.8,15.9-9.6,17.4C17.5,2532,16.4,2532,15.4,2532L15.4,2532z M16,2513.2c-2.9,0-5.4,2.2-5.8,5.1
	c0,0.1,0,0.2-0.1,0.4c-0.1,0-0.1-0.1-0.2-0.2c-1.4-2.4-2.8-4.8-4.2-7.1c-0.1-0.2-0.1-0.3,0-0.5c2.2-2.6,5-4.3,8.4-4.7
	c4.2-0.5,7.8,0.7,10.8,3.6c1,1,1.8,2.1,2.4,3.3c0,0,0,0.1,0.1,0.2C27.6,2513.2,16,2513.2,16,2513.2z M14.3,2531.7
	c-0.1,0.2-0.2,0.2-0.4,0.2c-2.6-0.4-4.9-1.6-6.8-3.4c-2.2-2.1-3.5-4.6-4-7.6c-0.5-3.2,0.2-6.3,2-9c0.1,0.1,0.1,0.2,0.2,0.2
	c1.9,3.2,3.8,6.5,5.7,9.7c1.5,2.5,4.5,3.6,7.2,2.5c0.1-0.1,0.3-0.1,0.4-0.2c0,0,0,0,0,0c-0.6,1.1-1.3,2.2-1.9,3.2
	C15.9,2528.9,15.1,2530.3,14.3,2531.7L14.3,2531.7z M16,2523.8c-2.7,0-4.8-2.2-4.8-4.9c0-2.7,2.1-4.8,4.9-4.8c2.6,0,4.8,2.2,4.8,4.8
	C20.8,2521.7,18.7,2523.8,16,2523.8z"/>
<title>icon-platforms-chromebook</title>
<path class="st52" d="M3,2558v-15.1c0-0.5,0.4-0.9,0.9-0.9h24.3c0.5,0,0.9,0.4,0.9,0.9v15.1H3z M28,2543H4v14h24V2543z M1,2559.7
	c0,0.7,1,1.3,2.1,1.3h25.7c1.2,0,2.1-0.6,2.1-1.3v-0.7H1V2559.7z M17,2554.9c-0.4,0.1-0.8,0.1-1.2,0.1c0,0-0.1,0-0.1,0l0.4-0.7
	c0.6-1,1.2-2.1,1.8-3.1c0.6-1,0.4-2.1-0.3-2.8c-0.1-0.1-0.2-0.2-0.3-0.3h0.2c1,0,2.1,0,3.1,0c0.1,0,0.1,0,0.2,0.1
	C21.8,2551.1,20,2554.3,17,2554.9L17,2554.9z M20.3,2547.8H16c-1.1,0-2.1,0.9-2.2,2l0,0.1c0,0,0-0.1-0.1-0.1
	c-0.5-0.9-1.1-1.8-1.6-2.7c0-0.1-0.1-0.1,0-0.2c0.8-1,1.9-1.6,3.2-1.8c1.6-0.2,3,0.3,4.1,1.4c0.4,0.4,0.7,0.8,0.9,1.3c0,0,0,0,0,0.1
	L20.3,2547.8L20.3,2547.8z M16.3,2553.3c-0.3,0.5-0.6,1.1-0.9,1.6c0,0.1-0.1,0.1-0.1,0.1c-1-0.2-1.9-0.6-2.6-1.3
	c-0.8-0.8-1.4-1.8-1.5-2.9c-0.2-1.2,0.1-2.4,0.8-3.5c0,0,0.1,0.1,0.1,0.1c0.7,1.3,1.4,2.5,2.2,3.7c0.5,1,1.7,1.4,2.8,1
	c0.1,0,0.1-0.1,0.2-0.1l0,0L16.3,2553.3L16.3,2553.3z M16,2551.9c-1,0-1.8-0.8-1.8-1.8c0,0,0,0,0,0c0-1,0.8-1.8,1.9-1.8
	c1,0,1.8,0.8,1.8,1.9C17.9,2551,17,2551.9,16,2551.9C16,2551.9,16,2551.9,16,2551.9L16,2551.9z"/>
<title>icon-platforms-email</title>
<path class="st52" d="M27.2,2575H4.8l11.2,11.2L27.2,2575z M28,2575.5l-12,12l-12-12v15.9l7.3-7.3l0.7,0.7l-7.3,7.3h22.7l-7.3-7.3
	l0.7-0.7l7.3,7.3V2575.5z"/>
<title>icon-platforms-firefox</title>
<path class="st52" d="M23.6,2611.4c0.1,0,0.2,2.5-0.2,3.7c0,0-0.3-0.6-1.4-1.1c0.3,0.8,0.3,1.7,0.3,1.7c0,3.1-2.5,5.6-5.6,5.6
	c-2.4,0-4-1.5-4.6-2.3c0.3,0.4,1.9,0.1,2.8-0.5c0.9-0.6,1.5-1.1,2-1c0.5,0.1,0.8-0.4,0.4-0.8c-0.4-0.4-1.3-1-2.6-0.7
	c-0.9,0.2-2,1.2-3.6,0.2c-1.4-0.8-1.4-1.5-1.4-1.9s0.7-1.6,2.1-1c0.2,0.1,0-0.9-0.3-1.5c0.5-1,2.2-1.4,2.3-1.4
	c0.2-0.2,0.1-0.2,0.2-0.5c0.1-0.2,0.1-0.9-1.7-0.7c-0.8,0.1-1.4-1-1.6-1.3c0.1-0.3,0.1-0.6,0.3-0.9c0.1-0.3,0.3-0.5,0.4-0.7
	c0-0.1,0.1-0.1,0.1-0.1c0.3-0.3,0.6-0.6,1-0.8c0.2-0.1-2.4,0-3.5,1.5c-0.3,0-0.7,0-1.2,0c-0.6,0-1.1,0.1-1.5,0.2c-0.1,0-0.2,0-0.3,0
	c-0.4-0.4-0.6-2-0.6-2l-2.2,4.5c0,0-1.2,2.4-1.2,5.5c0,7.2,5.8,13,13,13c7.2,0,13-5.8,13-13c0-3.9-2-6.8-2-6.8
	c-0.8-1.3-3.1-4.7-8.3-4.1c0.8,0.1,2.6,0.5,4,1.3c-0.2,0-1.6,0-2.9,0.2c2.5,0.4,4.6,2,5.6,4.2c0.1,0.2,0.3,1,0.5,1.5
	C21.1,2608.1,23.5,2610.3,23.6,2611.4L23.6,2611.4z"/>
<title>icon-platforms-gmail</title>
<path class="st52" d="M3.5,2657c-0.8,0-1.5-0.7-1.5-1.5v-16.9c0-0.9,0.7-1.5,1.5-1.5h24c0.8,0,1.5,0.7,1.5,1.5v16.9
	c0,0.9-0.7,1.5-1.5,1.5H3.5z M23,2640l-7.5,6l-7.5-6H5v14h3v-11l7.5,6l7.5-6v11h3v-14H23z"/>
<title>icon-platforms-ipad</title>
<path class="st52" d="M23.8,2667H9.2c-0.7,0-1.2,0.6-1.2,1.3v22.5c0,0.7,0.5,1.3,1.2,1.3h14.6c0.7,0,1.2-0.6,1.2-1.3v-22.5
	C25,2667.6,24.5,2667,23.8,2667z M16.8,2668.6c0,0.2-0.2,0.3-0.3,0.3c-0.2,0-0.3-0.1-0.3-0.3c0-0.2,0.1-0.3,0.3-0.3
	C16.7,2668.2,16.8,2668.4,16.8,2668.6C16.8,2668.6,16.8,2668.6,16.8,2668.6L16.8,2668.6z M16.5,2691.3c-0.4,0-0.8-0.3-0.8-0.8
	c0-0.4,0.3-0.8,0.8-0.8c0,0,0.1,0,0.1,0c0.4,0,0.8,0.4,0.8,0.8C17.3,2691,17,2691.3,16.5,2691.3z M24,2689H9v-19h15V2689z"/>
<title>icon-platforms-iphone</title>
<path class="st52" d="M11.9,2699c-1.1,0-1.9,0.8-1.9,1.9v21.3c0,1,0.9,1.9,1.9,1.9H21c1.1,0,2-0.8,2-1.9v-21.3c0-1-0.9-1.9-2-1.9
	C21,2699,11.9,2699,11.9,2699z M16.1,2700.2H18c0.2,0,0.3,0.1,0.3,0.3c0,0.2-0.1,0.3-0.3,0.3h-1.9c-0.2,0-0.3-0.1-0.3-0.3
	C15.7,2700.3,15.9,2700.2,16.1,2700.2z M14.8,2700.2c0.2,0,0.3,0.1,0.3,0.3c0,0.2-0.1,0.3-0.3,0.3l0,0c-0.2,0-0.3-0.1-0.3-0.3
	C14.5,2700.3,14.6,2700.2,14.8,2700.2L14.8,2700.2z M16.2,2723.3c-0.4,0-0.8-0.4-0.8-0.8s0.4-0.8,0.8-0.8l0,0c0.4,0,0.8,0.4,0.8,0.8
	S16.7,2723.3,16.2,2723.3z M22,2721H11v-19h11V2721z"/>
<title>icon-platforms-osx</title>
<path class="st52" d="M16,2756c7.2,0,13-5.8,13-13s-5.8-13-13-13s-13,5.8-13,13S8.8,2756,16,2756z M10.1,2735.1h1.1l4.8,7l4.9-7H22
	l-5.4,7.7l5.6,8.2h-1.1l-5.1-7.4l-5.2,7.4H9.7l5.7-8.2L10.1,2735.1L10.1,2735.1z"/>
<title>icon-platforms-outlook</title>
<path class="st52" d="M22.1,2773.5l-2.9-2.2v-4.1h10.1v0.5L22.1,2773.5z M19.2,2781.1v-8.2l2.8,2l7.3-5.6v11.8H19.2z M2.7,2785
	v-20.7l15.2-2.4v25.5C17.9,2787.5,2.7,2785,2.7,2785z M10.3,2769.2c-2.2,0-4,2.4-4,5.3c0,2.9,1.8,5.3,4,5.3s4-2.4,4-5.3
	C14.3,2771.6,12.5,2769.2,10.3,2769.2z M10.3,2777.7c-1.3,0-2.3-1.4-2.3-3.2c0-1.8,1-3.2,2.3-3.2c1.3,0,2.3,1.4,2.3,3.2
	C12.6,2776.3,11.5,2777.7,10.3,2777.7L10.3,2777.7z"/>
<title>icon-platforms-postbox</title>
<path class="st52" d="M9.8,2794.4c-1.7,0.6-2.8,1.9-3.6,3.5c-0.7,1.3-0.9,2.7-0.9,4.2c0,5.2,0,10.4,0,15.7v0.5
	c-0.4-0.1-0.8-0.2-1.1-0.3c-0.1,0-0.1-0.1-0.2-0.2c0-0.1,0-0.2,0-0.3v-15.7c0-1.9,0.4-3.6,1.5-5.2c1.1-1.5,2.5-2.3,4.3-2.5
	c0.1,0,0.1-0.1,0.2-0.1h0.7C10.5,2794.1,10.2,2794.2,9.8,2794.4L9.8,2794.4L9.8,2794.4z M27.6,2818.6c-0.3,0-0.7,0.1-1.1,0.2v-2.7
	c0-0.1,0-0.3,0-0.4c-0.1-0.7-0.5-1-1.2-0.9c-0.8,0.1-1.6,0.3-2.5,0.4l-3.8,0.6c-1,0.2-1.6,0.9-1.6,2c0,0.9,0,1.7,0,2.6
	c0,0.2-0.1,0.3-0.3,0.4c-0.3,0.1-0.6,0.1-1,0.2c0-0.1,0-0.2,0-0.3c0-6.3,0-12.5,0-18.8c0-1.3,0.2-2.5,0.6-3.7c0.9-2.6,2.9-4,5.6-3.9
	c2.8,0.1,4.9,1.9,5.4,4.7c0.1,0.6,0.2,1.3,0.2,1.9c0,5.7,0,11.4,0,17.1C28,2818.4,27.9,2818.6,27.6,2818.6L27.6,2818.6z M9.5,2815.8
	c-1-0.2-1.9-0.5-2.9-0.7c-0.2-0.1-0.3-0.1-0.3-0.4c0-4.1,0-8.2,0-12.3c0-0.6,0.1-1.2,0.1-1.7c0-0.2,0.1-0.3,0.4-0.3
	c1.1,0.1,2.3,0.2,3.4,0.3c0.9,0.1,1.7,0.2,2.6,0.2c0,0,0.1,0,0.1,0v15.6C11.8,2816.4,10.6,2816.1,9.5,2815.8L9.5,2815.8L9.5,2815.8z
	 M11.3,2802.2c-1.2-0.1-2.3-0.2-3.5-0.4c-0.3,0-0.4,0.1-0.4,0.4c0,0.7,0,1.3,0,2c0,0.5,0,0.5,0.5,0.6c1.1,0.1,2.2,0.3,3.3,0.5
	c0.3,0,0.4-0.1,0.4-0.4c0-0.4,0-0.7,0-1.1c0-0.4,0-0.7,0-1.1C11.6,2802.4,11.5,2802.2,11.3,2802.2L11.3,2802.2L11.3,2802.2z
	 M17.8,2795c-0.2,0.2-0.4,0.4-0.6,0.6c-1,1.1-1.6,2.4-1.8,3.9c-0.1,1-0.2,2-0.2,3.1c0,6,0,12,0,18v0.4c-0.1,0-0.1,0-0.1,0
	c-1.1-0.2-1.1-0.2-1.1-1.3c0-6,0-11.9,0-17.9c0-1.6,0.3-3.1,1-4.5c0.7-1.5,1.9-2.3,3.6-2.7C18.3,2794.6,18.1,2794.8,17.8,2795
	L17.8,2795z M13.7,2797.7c-0.2,0.7-0.4,1.4-0.6,2c-0.1,0.3-0.2,0.3-0.4,0.3c-1-0.1-2-0.2-3.1-0.3c-0.9-0.1-1.8-0.1-2.7-0.2
	c0,0-0.1,0-0.2-0.1c0.3-1.2,0.7-2.3,1.6-3.1c0.1-0.1,0.2-0.1,0.2-0.1c1.8,0.1,3.5,0.2,5.3,0.3c0.1,0,0.1,0,0.2,0
	C14,2797,13.8,2797.4,13.7,2797.7L13.7,2797.7z M15.2,2795.3c-0.4,0.4-0.8,0.5-1.3,0.5c-1.4-0.1-2.9-0.2-4.3-0.2
	c0.8-0.6,1.6-1.1,2.7-1.1c1.4,0,2.7,0,4.1,0c0,0,0,0,0.1,0C16,2794.7,15.6,2795,15.2,2795.3L15.2,2795.3z"/>
<title>safari_icon</title>
<path class="st52" d="M16,2827.8c-6.2,0-11.2,5-11.2,11.2s5,11.2,11.2,11.2s11.2-5,11.2-11.2S22.2,2827.8,16,2827.8z M8.6,2846.4
	l4.9-9.2l4.2,4.2L8.6,2846.4z M18.5,2840.8l-4.2-4.2l9.2-4.9L18.5,2840.8z"/>
<path class="st52" d="M16,2826c-7.2,0-13,5.8-13,13s5.8,13,13,13s13-5.8,13-13S23.2,2826,16,2826z M16,2851c-6.6,0-12-5.4-12-12
	s5.4-12,12-12s12,5.4,12,12S22.6,2851,16,2851z"/>
<title>icon-platforms-thunderbird</title>
<path class="st52" d="M9.5,2878.8c0.2,0.8,2.5,2.9,2.9,3.1c-0.3,0-1.2,0.3-1.9-0.1c0.1,0.3,0.2,0.5,0.1,0.5
	c-1.2-0.1-5.9-2.5-7.3-8.8c-1.3-6.2,1.2-9.9,4.5-12c0.1-0.1,0.7-0.2,0.6,0c-2.6,4.7-1.4,8.3-0.7,10.1c1.2,3.1,3.5,7.2,5.4,7.5
	C13.4,2879.2,10.4,2879.7,9.5,2878.8L9.5,2878.8z M28,2878.9l-0.1,0.2c-0.2,0.3-0.4,0.6-0.5,0.9c0,0.1-0.1,0.1-0.1,0.2
	c-0.1,0.1-0.2,0.3-0.3,0.4c0,0.1-0.1,0.1-0.1,0.2c-0.1,0.2-0.3,0.3-0.5,0.5c-1.3,1.4-2.3,2.4-1.5,1c0.1-0.2,0.1,0.1,0.1-0.3
	c-1,1.5-2.4,2.8-5.6,3.4c0.6-0.4,3-1.3,3.9-3.5c-0.7,1.5-2.6,2.4-4,2.8c-0.6,0.2-2,0.5-2.5,0.5c-1-0.1-0.2-0.3,1-1.1
	c0.1-0.1,0.5-0.3,0.6-0.4c0.1-0.1,0.3-0.2,0.4-0.3c0.1-0.1,0.2-0.1,0.2-0.2c0,0,0.2-0.2,0.3-0.3c0,0,0.5-0.5,0.5-0.6
	c0,0,0.2-0.3,0.3-0.3c0,0,0.4-0.6,0.5-0.6c0,0,0.2-0.3,0.3-0.4c0,0,0.1-0.2,0.2-0.3l0.2-0.3c0.1-0.1,0.1-0.3,0.2-0.4
	c0.1-0.1,0.2-0.3,0.2-0.4c0-0.1,0.1-0.3,0.2-0.3c0-0.1,0.2-0.4,0.2-0.4c0-0.1,0.1-0.3,0.1-0.3c0.1-0.2,0.2-0.4,0.3-0.7l0-0.1
	c0-0.1,0.1-0.2,0.1-0.2l0-0.1l0.1-0.3c0,0,0-0.1,0-0.1c0-0.1,0.1-0.3,0.1-0.3c0-0.1,0.1-0.3,0.1-0.3c0-0.1,0.1-0.4,0.1-0.4
	c0-0.1,0.1-0.3,0.1-0.3c0-0.1,0.1-0.3,0.1-0.4c0-0.1,0.1-0.4,0.1-0.5c0,0,0.2-1.1,0.2-1.1c-1.3,2.6-4.3,2.6-4.6,2.4
	c0,0,1.4-0.6,2.2-1.7c0.5-0.7,0.5-1.9,0.5-2.3v0c-0.2-2.6-3.1-5-8.3-3.1c-1.3,0.5-0.8,1.3-1.9,1.7c0,0-0.9,0.5-1.7,1.7
	c-0.1-0.1-1.6-2.1-1.9-5.4c-0.1-1.4,0.5-3.9,0.6-3.9c0.1-0.4,0.8-2.5,2.3-4c1.8-1.8,3.6-2,3.9-2c0,0-0.7,0.7-1,1
	c-0.4,0.6-0.4,1.1-0.4,1.3c0.3-0.1,1.3-0.3,1.3-0.3s1.6-0.4,3.9-0.1c1.2,0.2,3.5,0.5,5.3,1.6c2.8,1.1,5.4,4.5,5.9,7.9
	C30.3,2872.1,29.7,2876,28,2878.9L28,2878.9z"/>
<title>icon-platforms-todoist</title>
<path class="st52" d="M25,2891H7c-1.7,0-3,1.4-3,3v3.9l0,0l4.1,2.4c0.3,0.2,0.7,0.2,1,0l8.1-4.7c0.2-0.1,0.5-0.1,0.7,0
	c0.2,0.1,0.6,0.3,0.8,0.5c0.2,0.1,0.2,0.5,0,0.6c-0.2,0.1-9.3,5.3-9.7,5.6c-0.3,0.2-0.7,0.2-1,0c-0.6-0.3-3.1-1.8-4.1-2.4v2l0,0
	l4.1,2.4c0.3,0.2,0.7,0.2,1,0c0.3-0.1,8-4.6,8.1-4.7c0.3-0.2,0.6-0.1,0.7,0c0.2,0.1,0.6,0.3,0.8,0.5c0.2,0.1,0.2,0.5,0,0.6l-9.7,5.6
	c-0.3,0.2-0.7,0.2-1,0c-0.6-0.3-3.1-1.8-4.1-2.4v2l0,0l4.1,2.4c0.3,0.2,0.7,0.2,1,0c0.3-0.1,8-4.6,8.1-4.7c0.3-0.2,0.6-0.1,0.7,0
	c0.2,0.1,0.6,0.4,0.8,0.5c0.2,0.1,0.2,0.5,0,0.6l-9.7,5.6c-0.3,0.2-0.7,0.2-1,0c-0.6-0.3-3.1-1.8-4.1-2.4v4c0,1.6,1.3,3,3,3h18
	c1.6,0,3-1.4,3-3v-18C28,2892.4,26.6,2891,25,2891"/>
<title>icon-platforms-web</title>
<path class="st52" d="M3.9,2941c-0.5,0-0.9-0.4-0.9-0.9v-14.2c0-0.5,0.4-0.9,0.9-0.9h22.1c0.5,0,0.9,0.4,0.9,0.9v14.2
	c0,0.5-0.4,0.9-0.9,0.9H3.9z M19,2942h-8v2h-1v1h10v-1h-1V2942z M4,2926h22v14H4V2926z M5,2927h20v12H5V2927z"/>
<title>icon-platforms-windows</title>
<path class="st52" d="M14.6,2966.5v-9.5L28,2955v11.5L14.6,2966.5L14.6,2966.5z M4,2966.5v-8l9.7-1.4v9.4L4,2966.5
	C4,2966.5,4,2966.5,4,2966.5z M4,2975.5v-8.1h9.7v9.5L4,2975.5L4,2975.5z M14.6,2977.1v-9.7H28v11.6L14.6,2977.1L14.6,2977.1z"/>
<title>Fill 1 + Fill 2</title>
<g>
	<path class="st53" d="M18,3019c-9.7,0-17.5-7.9-17.5-17.5c0-9.7,7.9-17.5,17.5-17.5s17.5,7.9,17.5,17.5S27.7,3019,18,3019L18,3019z
		 M18,2985.7c-8.7,0-15.7,7-15.7,15.7c0,8.7,7,15.7,15.7,15.7c8.7,0,15.7-7,15.7-15.7S26.7,2985.7,18,2985.7L18,2985.7z"/>
	<path class="st53" d="M12.5,2992.4l15.5,9l-15.5,9V2992.4"/>
</g>
<title>Imported Layers</title>
<g>
	<path class="st39" d="M12,3042.6c-6.4,0-11.7-5.2-11.7-11.7c0-6.4,5.2-11.7,11.7-11.7s11.7,5.2,11.7,11.7
		C23.7,3037.4,18.4,3042.6,12,3042.6z M12,3020.5c-5.8,0-10.5,4.7-10.5,10.5s4.7,10.5,10.5,10.5c5.8,0,10.5-4.7,10.5-10.5
		C22.5,3025.2,17.8,3020.5,12,3020.5z"/>
	<path class="st39" d="M8.3,3025l10.4,6l-10.4,6L8.3,3025"/>
</g>
<title>play</title>
<g>
	<path class="st3" d="M18,3079c-9.7,0-17.5-7.9-17.5-17.5c0-9.7,7.9-17.5,17.5-17.5s17.5,7.9,17.5,17.5S27.7,3079,18,3079L18,3079z
		 M18,3045.7c-8.7,0-15.7,7-15.7,15.7c0,8.7,7,15.7,15.7,15.7c8.7,0,15.7-7,15.7-15.7S26.7,3045.7,18,3045.7L18,3045.7z"/>
	<path class="st3" d="M12.5,3052.4l15.5,9l-15.5,9V3052.4"/>
</g>
<title>icon-reasons-collaborate</title>
<g>
	<path class="st54" d="M70,3123.9c0.2-1.3,0.3-2.6,0.3-3.9c0-1.3-0.1-2.7-0.3-3.9 M34.4,3095.4c-2.5,1-4.8,2.3-6.9,4 M27.4,3140.5
		c2.1,1.7,4.4,3,6.9,4"/>
	<path class="st39" d="M43,3097.1c0-7.8,6.3-14.1,14.1-14.1c7.8,0,14.1,6.3,14.1,14.1s-6.3,14.1-14.1,14.1S43,3104.9,43,3097.1
		 M40,3097.1c0,9.5,7.7,17.1,17.1,17.1c9.5,0,17.1-7.7,17.1-17.1s-7.7-17.1-17.1-17.1C47.7,3080,40,3087.6,40,3097.1 M43,3142.8
		c0-7.8,6.3-14.1,14.1-14.1c7.8,0,14.1,6.3,14.1,14.1c0,7.8-6.3,14.1-14.1,14.1C49.3,3157,43,3150.6,43,3142.8 M40,3142.8
		c0,9.5,7.7,17.1,17.1,17.1c9.5,0,17.1-7.7,17.1-17.1c0-9.5-7.7-17.1-17.1-17.1C47.7,3125.7,40,3133.4,40,3142.8 M3.4,3120
		c0-7.8,6.3-14.1,14.1-14.1c7.8,0,14.1,6.3,14.1,14.1c0,7.8-6.3,14.1-14.1,14.1C9.7,3134.1,3.4,3127.8,3.4,3120 M0.4,3120
		c0,9.5,7.7,17.1,17.1,17.1c9.5,0,17.1-7.7,17.1-17.1c0-9.5-7.7-17.1-17.1-17.1C8.1,3102.8,0.4,3110.5,0.4,3120"/>
</g>
<title>icon-reasons-design</title>
<path class="st39" d="M59,3182.6l13.7,37.6l-1.9,0.7l-13.7-37.6L59,3182.6 M60.2,3180l-5.6,2.1l15,41.3l5.6-2.1L60.2,3180"/>
<rect x="73.4" y="3222.1" transform="matrix(0.9397 -0.342 0.342 0.9397 -1099.6255 220.1547)" class="st39" width="2" height="12"/>
<path class="st3" d="M68.4,3222.4c0,2.2,1.8,4,4,4s4-1.8,4-4s-1.8-4-4-4S68.4,3220.2,68.4,3222.4z"/>
<path class="st39" d="M72.4,3227.4c-2.8,0-5-2.2-5-5s2.2-5,5-5s5,2.2,5,5S75.1,3227.4,72.4,3227.4z M72.4,3219.4c-1.7,0-3,1.3-3,3
	s1.3,3,3,3s3-1.3,3-3S74,3219.4,72.4,3219.4z"/>
<path class="st39" d="M51,3182.6l1.9,0.7l-13.7,37.6l-1.9-0.7L51,3182.6 M49.8,3180l-15,41.3l5.6,2.1l15-41.3L49.8,3180"/>
<rect x="29.6" y="3227.1" transform="matrix(0.3418 -0.9398 0.9398 0.3418 -3010.2051 2158.061)" class="st39" width="12" height="2"/>
<path class="st3" d="M41.6,3222.4c0,2.2-1.8,4-4,4s-4-1.8-4-4s1.8-4,4-4S41.6,3220.2,41.6,3222.4z"/>
<path class="st39" d="M37.6,3227.4c-2.8,0-5-2.2-5-5s2.2-5,5-5s5,2.2,5,5S40.4,3227.4,37.6,3227.4z M37.6,3219.4c-1.7,0-3,1.3-3,3
	s1.3,3,3,3s3-1.3,3-3S39.3,3219.4,37.6,3219.4z"/>
<path class="st39" d="M54.5,3160.3c-1.1,0-2,0.9-2,2v8c0,1.1,0.9,2,2,2s2-0.9,2-2v-8C56.5,3161.2,55.6,3160.3,54.5,3160.3"/>
<path class="st3" d="M52.5,3187.3c-1.7,0-3-1.3-3-3v-8c0-1.7,1.3-3,3-3h4c1.7,0,3,1.3,3,3v8c0,1.7-1.3,3-3,3H52.5"/>
<path class="st39" d="M56.5,3174.3c1.1,0,2,0.9,2,2v8c0,1.1-0.9,2-2,2h-4c-1.1,0-2-0.9-2-2v-8c0-1.1,0.9-2,2-2H56.5 M56.5,3172.3h-4
	c-2.2,0-4,1.8-4,4v8c0,2.2,1.8,4,4,4h4c2.2,0,4-1.8,4-4v-8C60.5,3174.1,58.7,3172.3,56.5,3172.3 M7,3162h16v70H7V3162z M5,3234h20
	v-74H5V3234z"/>
<path class="st39" d="M12.9,3226H25v2H12.9V3226z M17,3222h8v2h-8V3222z M12.9,3218H25v2H12.9C12.9,3220,12.9,3218,12.9,3218z
	 M17,3214h8v2h-8V3214z M12.9,3210H25v2H12.9C12.9,3212,12.9,3210,12.9,3210z M17,3206h8v2h-8V3206z M12.9,3202H25v2H12.9
	C12.9,3204,12.9,3202,12.9,3202z M17,3198h8v2h-8V3198z M12.9,3194H25v2H12.9C12.9,3196,12.9,3194,12.9,3194z M17,3190h8v2h-8V3190z
	 M12.9,3186H25v2H12.9C12.9,3188,12.9,3186,12.9,3186z M17,3182h8v2h-8V3182z M12.9,3178H25v2H12.9C12.9,3180,12.9,3178,12.9,3178z
	 M17,3174h8v2h-8V3174z M12.9,3170H25v2H12.9C12.9,3172,12.9,3170,12.9,3170z M17,3166h8v2h-8V3166z"/>
<path class="st3" d="M12.4,3247l-9.1-3l9.1-3h66.7v6H12.4"/>
<path class="st39" d="M78.1,3242v4H12.6l-6-2l6-2H78.1 M80.1,3240H12.2l-12.1,4l12.1,4h67.8L80.1,3240"/>
<polygon class="st39" points="14.2,3247 12.2,3247 12.2,3241 14.2,3241 14.2,3243 78.1,3243 78.1,3245 14.2,3245 "/>
<title>icon-reasons-everywhere</title>
<g>
	<path class="st39" d="M71.4,3311.8H19c-10.2,0-18.5-8.3-18.5-18.5c0-6.3,3.2-12.1,8.4-15.5c-1.5-5.6,0.8-11.7,5.8-14.8
		c4.2-2.7,9.6-2.7,13.9-0.3c5.9-10.4,17.9-15.8,29.7-13.2c12.8,2.9,21.6,14.2,21.3,27.1c6.4,3.1,10.4,9.5,10.4,16.7l0,0
		C89.9,3303.5,81.6,3311.8,71.4,3311.8z M21.8,3263.9c-1.9,0-3.9,0.5-5.6,1.6c-4.1,2.6-5.9,7.9-4.2,12.4l0.4,1.2l-1.1,0.6
		c-4.9,2.8-7.9,7.9-7.9,13.5c0,8.6,7,15.5,15.5,15.5h52.4c8.6,0,15.5-7,15.5-15.5l0,0c0-6.3-3.7-11.9-9.5-14.3l-1-0.4l0.1-1.1
		c0.7-11.9-7.3-22.5-18.9-25.1c-11-2.5-22.2,2.9-27.1,13.1l-0.8,1.7l-1.5-1.1C26.3,3264.6,24.1,3263.9,21.8,3263.9z"/>
	<path class="st39" d="M47,3301.4c-4.1,0-8-1.6-10.9-4.5c-6.1-6.1-5.9-16.3,0.5-22.7l1.8-1.8l1.4,1.4l-1.8,1.8
		c-5.6,5.6-5.8,14.5-0.5,19.8c2.9,2.9,7.1,4.3,11.3,3.8l0.3,2C48.4,3301.4,47.7,3301.4,47,3301.4z M56.8,3298.4l-1.4-1.4l1.8-1.8
		c5.7-5.5,6-14.4,0.8-19.8c-2.9-3-7.1-4.4-11.4-3.9l-0.3-2c4.9-0.6,9.7,1,13.1,4.5c6,6.2,5.7,16.4-0.8,22.6L56.8,3298.4z"/>
	<path class="st39" d="M61.7,3298.7H55v-6.6h2v4.6h4.6V3298.7z M40.1,3278.8h-2v-4.6h-4.6v-2h6.6V3278.8z"/>
</g>
<polygon class="st39" points="10.4,1807.8 12.6,1805.7 17.6,1810.7 29.3,1799 31.4,1801.1 17.6,1814.9 16.5,1813.9 10.4,1807.8 "/>
</svg>
