<svg xmlns="http://www.w3.org/2000/svg" xmlns:xlink="http://www.w3.org/1999/xlink" width="90" height="3312" viewBox="0 0 90 3312"><svg width="50" height="46" viewBox="0 0 50 46" id="arrow-scribble-up-left"><title>A</title><path d="M49.8 44.1c-1.6-4.49-3.99-8.844-7.167-13.067a66.644 66.644 0 0 0-10.866-11.366 106.108 106.108 0 0 0-12.6-8.967A98.894 98.894 0 0 0 5.933 3.967c-.31-.09-.61-.078-.9.033a.99.99 0 0 0-.6.6c-.11.29-.11.578 0 .867.11.29.3.5.567.633a93.099 93.099 0 0 1 13.033 6.6A104.715 104.715 0 0 1 30.3 21.433a64.186 64.186 0 0 1 10.467 10.934c3.044 4.044 5.344 8.222 6.9 12.533.09.267.277.467.566.6.29.133.578.156.867.067.29-.09.5-.278.633-.567.134-.29.156-.59.067-.9zm-35-44c-.133 0-.667-.022-1.6-.067h-2.733a36.882 36.882 0 0 0-3.134 0c-1.866.045-3.355.178-4.466.4-.71.178-1.267.378-1.667.6C.49 1.39.09 1.9 0 2.567c0 .133.022.31.067.533 0 .133.022.29.066.467.09.266.2.666.334 1.2l1.066 3.466c1.023 3.467 1.578 5.534 1.667 6.2.044.267.2.5.467.7.266.2.544.278.833.234.29-.045.533-.2.733-.467.2-.267.278-.556.234-.867-.134-.71-.734-2.844-1.8-6.4l-1-3.466a17.666 17.666 0 0 0-.334-1.2c.223-.09.556-.2 1-.334.978-.177 2.334-.29 4.067-.333a51.659 51.659 0 0 1 3.133-.033 1089.067 1089.067 0 0 0 4.267.1c.31 0 .578-.11.8-.334.222-.222.333-.49.333-.8 0-.31-.11-.577-.333-.8A1.09 1.09 0 0 0 14.8.1z" fill="#C4C4C4" fill-rule="evenodd"/></svg><svg width="32" height="27" viewBox="0 0 32 27" id="icon-features-activity-v1" y="46"><title>activity_icon</title><defs><path d="M4.004 0h23.992C30.206 0 32 1.942 32 4.323v18.354C32 25.065 30.21 27 27.996 27H4.004C1.794 27 0 25.058 0 22.677V4.323C0 1.935 1.79 0 4.004 0z" id="aba"/><mask id="abb" x="0" y="0" width="32" height="27" fill="#fff"><use xlink:href="#aba"/></mask></defs><g fill="none" fill-rule="evenodd"><path d="M-5-9h42v42H-5z"/><g stroke="#F86959"><use mask="url(#abb)" stroke-width="4" fill-opacity="0" fill="#FFF" xlink:href="#aba"/><path stroke-width="2" stroke-linecap="square" stroke-linejoin="round" d="M2 15h5.75l2.584-4.5 5.06 10.056L20.73 6.444 24.346 15H30"/></g></g></svg><svg width="34" height="29" viewBox="0 0 34 29" id="icon-features-admin-v1" y="73"><title>admin_icon</title><g fill="none" fill-rule="evenodd"><path d="M-4-7h42v42H-4z"/><path d="M0 2.99C0 1.34 1.343 0 3.002 0h27.996A2.998 2.998 0 0 1 34 2.99v18.02c0 1.65-1.343 2.99-3.002 2.99H3.002A2.998 2.998 0 0 1 0 21.01V2.99zm2 .005c0-.55.447-.995.998-.995h28.004a1 1 0 0 1 .998.995V21H2V2.995z" fill="#F86959"/><path d="M14.647 7.23a4.83 4.83 0 0 1 .997-.414l.25-1.336a.612.612 0 0 1 .582-.48h1.048c.27 0 .532.213.582.48l.25 1.336c.35.1.684.24.997.413l1.122-.77a.616.616 0 0 1 .75.072l.742.74a.614.614 0 0 1 .072.752l-.77 1.122c.172.313.312.647.413.997l1.336.25c.264.05.48.308.48.582v1.048c0 .27-.214.532-.48.582l-1.337.25c-.1.35-.24.684-.413.997l.77 1.122c.15.223.12.557-.073.75l-.74.742a.614.614 0 0 1-.752.072l-1.122-.77a4.83 4.83 0 0 1-.997.414l-.25 1.336a.612.612 0 0 1-.582.48h-1.048a.613.613 0 0 1-.582-.48l-.25-1.336c-.35-.1-.684-.24-.997-.413l-1.122.77a.613.613 0 0 1-.75-.074l-.742-.74a.614.614 0 0 1-.072-.752l.77-1.122a4.882 4.882 0 0 1-.413-.997l-1.336-.25a.613.613 0 0 1-.48-.582v-1.048c0-.27.214-.532.48-.582l1.337-.25c.1-.35.24-.684.413-.997l-.77-1.122a.614.614 0 0 1 .073-.75l.74-.742a.614.614 0 0 1 .752-.072l1.122.77zM17 13.936a2.44 2.44 0 0 0 0-4.877 2.44 2.44 0 0 0 0 4.877z" fill="#FCB5AD"/><path fill="#F86959" d="M21 25h-8v2h-2v2h12v-2h-2"/></g></svg><svg width="33" height="28" viewBox="0 0 33 28" id="icon-features-back-ups-v1" y="102"><title>backup_icon</title><g fill="none" fill-rule="evenodd"><path d="M-3-7h42v42H-3z"/><path d="M7 14h5l-6 6-6-6h5C5 6.268 11.268 0 19 0s14 6.268 14 14-6.268 14-14 14a13.95 13.95 0 0 1-9.387-3.613l1.416-1.416A11.95 11.95 0 0 0 19 26c6.627 0 12-5.373 12-12S25.627 2 19 2 7 7.373 7 14zm18 2h-8V7h2v7.2h6V16z" fill="#F86959"/></g></svg><svg width="42" height="42" viewBox="0 0 42 42" id="icon-features-backups" y="130"><title>backup_icon</title><g fill="#DB4C3F" fill-rule="evenodd"><path d="M0 14l6 6 6-6H0z" transform="translate(4 7)"/><path d="M6 19.206C5.355 17.596 5 15.84 5 14 5 6.268 11.268 0 19 0s14 6.268 14 14-6.268 14-14 14a13.95 13.95 0 0 1-9.387-3.613l1.525-1.525A11.807 11.807 0 0 0 19 25.846c6.542 0 11.846-5.304 11.846-11.846S25.542 2.154 19 2.154 7.154 7.458 7.154 14H6v5.206z" transform="translate(4 7)"/><path d="M25 16h-8V7h2v7.2h6V16z" transform="translate(4 7)"/></g></svg><svg width="42" height="42" viewBox="0 0 42 42" id="icon-features-backups-premium" y="172"><title>backup_icon</title><g fill="#F7B850" fill-rule="evenodd"><path d="M0 14l6 6 6-6H0z" transform="translate(4 7)"/><path d="M6 19.206C5.355 17.596 5 15.84 5 14 5 6.268 11.268 0 19 0s14 6.268 14 14-6.268 14-14 14a13.95 13.95 0 0 1-9.387-3.613l1.525-1.525A11.807 11.807 0 0 0 19 25.846c6.542 0 11.846-5.304 11.846-11.846S25.542 2.154 19 2.154 7.154 7.458 7.154 14H6v5.206z" transform="translate(4 7)"/><path d="M25 16h-8V7h2v7.2h6V16z" transform="translate(4 7)"/></g></svg><svg width="34" height="30" viewBox="0 0 34 30" id="icon-features-comments-v1" y="214"><title>comments_icon</title><defs><path d="M30 17V4c0-2.21-1.793-4-4.004-4H4.004A4 4 0 0 0 0 4v13c0 2.21 1.793 4 4.004 4H17l7 5h1v-5h1a4 4 0 0 0 4-4z" id="aga"/><mask id="agc" x="0" y="0" width="30" height="26" fill="#fff"><use xlink:href="#aga"/></mask><filter x="-50%" y="-50%" width="200%" height="200%" filterUnits="objectBoundingBox" id="agd"><feOffset dy="2" in="SourceAlpha" result="shadowOffsetOuter1"/><feColorMatrix values="0 0 0 0 1 0 0 0 0 1 0 0 0 0 1 0 0 0 1 0" in="shadowOffsetOuter1" result="shadowMatrixOuter1"/><feMerge><feMergeNode in="shadowMatrixOuter1"/><feMergeNode in="SourceGraphic"/></feMerge></filter><path d="M30 17V4c0-2.21-1.793-4-4.004-4H4.004A4 4 0 0 0 0 4v13c0 2.21 1.793 4 4.004 4H17l7 5h1v-5h1a4 4 0 0 0 4-4z" id="agb"/><mask id="age" x="0" y="0" width="30" height="26" fill="#fff"><use xlink:href="#agb"/></mask></defs><g fill="none" fill-rule="evenodd"><path d="M-4-7h42v42H-4z"/><g transform="translate(4 4)"><use stroke="#F86A5A" mask="url(#agc)" stroke-width="4" fill="#FFF" xlink:href="#aga"/><path fill="#FFF" d="M26 0h2v17h-2z"/><rect fill="#F86A5A" x="28" width="2" height="4" rx="1"/></g><path fill="#FFF" d="M3 21h2v7H3z"/><g filter="url(#agd)" transform="matrix(-1 0 0 1 30 0)"><use stroke="#F86A5A" mask="url(#age)" stroke-width="4" fill="#FFF" xlink:href="#agb"/><path fill="#FCB5AD" d="M7 12h16v2H7zm16-5H7v2h16z"/></g></g></svg><svg width="42" height="42" viewBox="0 0 42 42" id="icon-features-dates" y="244"><title>icon-features-dates</title><path d="M2 30.5h38V32H2v-1.5zm9 3h20V35H11v-1.5zM7.134 29L2 25.167l5.067-3.834-2.534-5.75 6.334-.64.633-6.387 5.7 2.555L21 6l3.8 5.11 5.7-2.554.633 6.388 6.334.64-2.534 5.75L40 25.166 34.933 29h-4.536c.475-1.184.736-2.478.736-3.833 0-5.646-4.537-10.223-10.133-10.223-5.596 0-10.133 4.577-10.133 10.223 0 1.355.26 2.65.736 3.833h-4.47z" fill="#DB4C3F" fill-rule="evenodd"/></svg><svg width="42" height="42" viewBox="0 0 42 42" id="icon-features-dates-premium" y="286"><title>icon-features-dates</title><path d="M2 30.5h38V32H2v-1.5zm9 3h20V35H11v-1.5zM7.134 29L2 25.167l5.067-3.834-2.534-5.75 6.334-.64.633-6.387 5.7 2.555L21 6l3.8 5.11 5.7-2.554.633 6.388 6.334.64-2.534 5.75L40 25.166 34.933 29h-4.536c.475-1.184.736-2.478.736-3.833 0-5.646-4.537-10.223-10.133-10.223-5.596 0-10.133 4.577-10.133 10.223 0 1.355.26 2.65.736 3.833h-4.47z" fill="#F7B850" fill-rule="evenodd"/></svg><svg width="32" height="25" viewBox="0 0 32 25" id="icon-features-email-v1" y="328"><title>email_icon</title><g fill="none" fill-rule="evenodd"><path d="M-5-10h42v42H-5z"/><path d="M30 5.125v-1.13A1.999 1.999 0 0 0 28.01 2H3.99C2.9 2 2 2.893 2 3.995v1.13L16 13l14-7.875zm0 2.3v13.58C30 22.107 29.1 23 28.01 23H3.99A2 2 0 0 1 2 21.005V7.425L16 15.3l14-7.875zM0 4.003C0 1.793 1.79 0 4.004 0h23.992A4.008 4.008 0 0 1 32 4.003v16.994C32 23.207 30.21 25 27.996 25H4.004A4.008 4.008 0 0 1 0 20.997V4.003z" fill="#F86959"/></g></svg><svg width="42" height="42" viewBox="0 0 42 42" id="icon-features-emails" y="353"><title>email_icon</title><path d="M35 14.125v-1.13A1.999 1.999 0 0 0 33.01 11H8.99C7.9 11 7 11.893 7 12.995v1.13L21 22l14-7.875zm0 2.3v13.58C35 31.107 34.1 32 33.01 32H8.99A2 2 0 0 1 7 30.005v-13.58L21 24.3l14-7.875zM5 13.003C5 10.793 6.79 9 9.004 9h23.992A4.008 4.008 0 0 1 37 13.003v16.994C37 32.207 35.21 34 32.996 34H9.004A4.008 4.008 0 0 1 5 29.997V13.003z" fill="#DB4C3F" fill-rule="evenodd"/></svg><svg width="42" height="42" viewBox="0 0 42 42" id="icon-features-emails-premium" y="395"><title>email_icon</title><path d="M35 14.125v-1.13A1.999 1.999 0 0 0 33.01 11H8.99C7.9 11 7 11.893 7 12.995v1.13L21 22l14-7.875zm0 2.3v13.58C35 31.107 34.1 32 33.01 32H8.99A2 2 0 0 1 7 30.005v-13.58L21 24.3l14-7.875zM5 13.003C5 10.793 6.79 9 9.004 9h23.992A4.008 4.008 0 0 1 37 13.003v16.994C37 32.207 35.21 34 32.996 34H9.004A4.008 4.008 0 0 1 5 29.997V13.003z" fill="#F7B850" fill-rule="evenodd"/></svg><svg width="34" height="29" viewBox="0 0 34 29" id="icon-features-encryption-v1" y="437"><title>vault_icon</title><defs><path d="M4.004 0h25.992C32.206 0 34 1.942 34 4.323v20.354C34 27.065 32.21 29 29.996 29H4.004C1.794 29 0 27.058 0 24.677V4.323C0 1.935 1.79 0 4.004 0z" id="ama"/><mask id="ame" x="0" y="0" width="34" height="29" fill="#fff"><use xlink:href="#ama"/></mask><rect id="amb" x="4" y="4" width="26" height="21" rx="2"/><mask id="amf" x="0" y="0" width="26" height="21" fill="#fff"><use xlink:href="#amb"/></mask><path id="amc" d="M4 17h4v3H4z"/><mask id="amg" x="0" y="0" width="4" height="3" fill="#fff"><use xlink:href="#amc"/></mask><path id="amd" d="M4 10h4v3H4z"/><mask id="amh" x="0" y="0" width="4" height="3" fill="#fff"><use xlink:href="#amd"/></mask></defs><g fill="none" fill-rule="evenodd"><path d="M-4-6h42v41.706H-4z"/><use stroke="#F86959" mask="url(#ame)" stroke-width="4" fill-opacity="0" fill="#FFF" xlink:href="#ama"/><use stroke="#F86959" mask="url(#amf)" stroke-width="4" fill-opacity="0" fill="#FFF" xlink:href="#amb"/><path d="M20.708 14a2.501 2.501 0 1 1 0 2H16v-2h4.708z" fill="#F86959"/><use stroke="#F86959" mask="url(#amg)" stroke-width="4" fill="#FFF" xlink:href="#amc"/><use stroke="#F86959" mask="url(#amh)" stroke-width="4" fill="#FFF" xlink:href="#amd"/></g></svg><svg width="24" height="27" viewBox="0 0 24 27" id="icon-features-files-v1" y="466"><title>attachment_icon</title><g fill="none" fill-rule="evenodd"><path d="M-9-9h42v42H-9z"/><path d="M2.043 14.82l12.995-13.3a4.987 4.987 0 0 1 7.17 0c1.98 2.027 1.98 5.31 0 7.338L9.81 21.546a3.119 3.119 0 0 1-4.48 0 3.298 3.298 0 0 1 0-4.586l11.5-11.77 1.345 1.375-11.5 11.77a1.321 1.321 0 0 0 0 1.835 1.249 1.249 0 0 0 1.79 0l12.4-12.688a3.3 3.3 0 0 0 0-4.586 3.117 3.117 0 0 0-4.48 0l-12.996 13.3c-1.98 2.026-1.98 5.31 0 7.337s5.19 2.027 7.17 0L22.654 11.15 24 12.528 11.9 24.91a6.855 6.855 0 0 1-9.857 0c-2.724-2.79-2.724-7.302 0-10.09z" fill="#F86959"/></g></svg><svg width="42" height="42" viewBox="0 0 42 42" id="icon-features-filters" y="493"><title>filter_icon</title><path d="M25.5 17.902c-2.233-3.168-3.31-5.07-3.807-7.076L20.5 6l-1.193 4.826c-.496 2.007-1.574 3.908-3.807 7.076-3.767 5.346-4.5 6.617-4.5 9.035 0 5.148 4.34 9.267 9.55 9.055 5.207.21 9.45-3.864 9.45-9.055 0-2.418-.733-3.69-4.5-9.035z" stroke="#DB4C3F" stroke-width="2" fill="none" fill-rule="evenodd"/></svg><svg width="42" height="42" viewBox="0 0 42 42" id="icon-features-filters-premium" y="535"><title>filter_icon</title><path d="M25.5 17.902c-2.233-3.168-3.31-5.07-3.807-7.076L20.5 6l-1.193 4.826c-.496 2.007-1.574 3.908-3.807 7.076-3.767 5.346-4.5 6.617-4.5 9.035 0 5.148 4.34 9.267 9.55 9.055 5.207.21 9.45-3.864 9.45-9.055 0-2.418-.733-3.69-4.5-9.035z" stroke="#F7B850" stroke-width="2" fill="none" fill-rule="evenodd"/></svg><svg width="21" height="32" viewBox="0 0 21 32" id="icon-features-filters-v1" y="577"><title>filter_icon</title><defs><path id="apa" d="M0 0h21v32H0z"/></defs><g fill="none" fill-rule="evenodd"><mask id="apb" fill="#fff"><use xlink:href="#apa"/></mask><path d="M15.5 12.3c-2.233-3.274-3.31-5.24-3.807-7.313L10.5 0 9.307 4.987C8.81 7.06 7.733 9.027 5.5 12.3 1.733 17.82 1 19.135 1 21.634c0 5.32 4.34 9.576 9.55 9.357C15.756 31.21 20 27 20 21.636c0-2.5-.733-3.813-4.5-9.336z" stroke="#F86959" stroke-width="2" mask="url(#apb)"/></g></svg><svg width="42" height="42" viewBox="0 0 42 42" id="icon-features-icalendar" y="609"><title>icalendar_icon</title><path d="M31 10h3.998A2 2 0 0 1 37 11.997v19.997A4.003 4.003 0 0 1 32.996 36H9.004A4.002 4.002 0 0 1 5 31.994V11.997C5 10.894 5.89 10 7.002 10H11V7h4v3h12V7h4v3zM7 16h28v16.005C35 33.107 34.1 34 33.01 34H8.99A1.994 1.994 0 0 1 7 32.005V16zm7 6.178v-1.064c.983-.098 1.67-.26 2.057-.49.388-.23.678-.77.903-1.624H18v11h-1.6v-7.822H14zM29 19v1.227c-.17.35-.65.955-1.244 1.82a18.873 18.873 0 0 0-1.583 2.797c-.453.974-1.617 4.01-1.617 5.156h-1.778c.32-2.135 1.102-4.26 2.346-6.375.678-1.24 1.428-2.31 2.25-3.21H21V19h8z" fill="#DB4C3F" fill-rule="evenodd"/></svg><svg width="42" height="42" viewBox="0 0 42 42" id="icon-features-icalendar-premium" y="651"><title>icalendar_icon</title><path d="M31 10h3.998A2 2 0 0 1 37 11.997v19.997A4.003 4.003 0 0 1 32.996 36H9.004A4.002 4.002 0 0 1 5 31.994V11.997C5 10.894 5.89 10 7.002 10H11V7h4v3h12V7h4v3zM7 16h28v16.005C35 33.107 34.1 34 33.01 34H8.99A1.994 1.994 0 0 1 7 32.005V16zm7 6.178v-1.064c.983-.098 1.67-.26 2.057-.49.388-.23.678-.77.903-1.624H18v11h-1.6v-7.822H14zM29 19v1.227c-.17.35-.65.955-1.244 1.82a18.873 18.873 0 0 0-1.583 2.797c-.453.974-1.617 4.01-1.617 5.156h-1.778c.32-2.135 1.102-4.26 2.346-6.375.678-1.24 1.428-2.31 2.25-3.21H21V19h8z" fill="#F7B850" fill-rule="evenodd"/></svg><svg width="38" height="29" viewBox="0 0 38 29" id="icon-features-karma-v1" y="693"><title>karma_icon</title><g fill="none" fill-rule="evenodd"><path d="M-2-6h42v42H-2z"/><g transform="translate(1 1)" stroke="#F86959" stroke-width="2"><path d="M3.064 15l9.957-3 9.96 13.2 9.957-22.072"/><circle fill="#FFF" cx="22" cy="24" r="3"/><circle fill="#FFF" cx="33" cy="3" r="3"/><circle fill="#FFF" cx="13" cy="12" r="3"/><circle fill="#FFF" cx="3" cy="15" r="3"/></g></g></svg><svg width="42" height="42" viewBox="0 0 42 42" id="icon-features-labels" y="722"><title>icon-features-filters</title><path d="M26.895 9l-18.527.016C6.516 9.016 5 10.48 5 12.286v16.428c0 1.807 1.516 3.27 3.368 3.27L26.895 32c1.128 0 2.14-.542 2.745-1.38L37 20.5l-7.36-10.12A3.383 3.383 0 0 0 26.895 9z" stroke="#DB4C3F" stroke-width="2" fill="#FFF" fill-rule="evenodd"/></svg><svg width="42" height="42" viewBox="0 0 42 42" id="icon-features-labels-premium" y="764"><title>icon-features-filters</title><path d="M26.895 9l-18.527.016C6.516 9.016 5 10.48 5 12.286v16.428c0 1.807 1.516 3.27 3.368 3.27L26.895 32c1.128 0 2.14-.542 2.745-1.38L37 20.5l-7.36-10.12A3.383 3.383 0 0 0 26.895 9z" stroke="#F7B850" stroke-width="2" fill="#FFF" fill-rule="evenodd"/></svg><svg width="32" height="23" viewBox="0 0 32 23" id="icon-features-labels-v1" y="806"><title>label_icon</title><defs><path d="M0 4.006A4 4 0 0 1 4 0h17.496c1.107 0 2.536.72 3.195 1.61L32 11.5l-7.31 9.89c-.657.89-2.083 1.61-3.194 1.61H4c-2.21 0-4-1.786-4-4.006V4.006z" id="ava"/><mask id="avb" x="0" y="0" width="32" height="23" fill="#fff"><use xlink:href="#ava"/></mask></defs><g fill="none" fill-rule="evenodd"><path d="M-5-12h42v42H-5z"/><use mask="url(#avb)" xlink:href="#ava" stroke="#F86959" stroke-width="4"/></g></svg><svg width="42" height="42" viewBox="0 0 42 42" id="icon-features-location" y="829"><title>location_icon</title><g stroke="#DB4C3F" stroke-width="2" fill="none" fill-rule="evenodd"><path d="M10 16.2C10 24.6 21 37 21 37s11-12.4 11-20.8C32 10.008 27.08 5 21 5s-11 5.008-11 11.2z"/><path d="M21 21c-2.76 0-5-2.24-5-5s2.24-5 5-5 5 2.24 5 5-2.24 5-5 5z"/></g></svg><svg width="42" height="42" viewBox="0 0 42 42" id="icon-features-location-premium" y="871"><title>location_icon</title><g stroke="#F7B850" stroke-width="2" fill="none" fill-rule="evenodd"><path d="M10 16.2C10 24.6 21 37 21 37s11-12.4 11-20.8C32 10.008 27.08 5 21 5s-11 5.008-11 11.2z"/><path d="M21 21c-2.76 0-5-2.24-5-5s2.24-5 5-5 5 2.24 5 5-2.24 5-5 5z"/></g></svg><svg width="42" height="42" viewBox="0 0 42 42" id="icon-features-notes" y="913"><title>icon-features-notes</title><path d="M37 26V13c0-2.21-1.793-4-4.004-4H9.004A4 4 0 0 0 5 13v13c0 2.21 1.793 4 4.004 4H25l7 5h1v-5a4 4 0 0 0 4-4zM7 13a2 2 0 0 1 1.99-2h24.02c1.098 0 1.99.89 1.99 2v13c0 1.105-.888 2-2 2H8.994C7.894 28 7 27.11 7 26V13z" fill="#DB4C3F" fill-rule="evenodd"/></svg><svg width="42" height="42" viewBox="0 0 42 42" id="icon-features-notes-premium" y="955"><title>icon-features-notes</title><path d="M37 26V13c0-2.21-1.793-4-4.004-4H9.004A4 4 0 0 0 5 13v13c0 2.21 1.793 4 4.004 4H25l7 5h1v-5a4 4 0 0 0 4-4zM7 13a2 2 0 0 1 1.99-2h24.02c1.098 0 1.99.89 1.99 2v13c0 1.105-.888 2-2 2H8.994C7.894 28 7 27.11 7 26V13z" fill="#F7B850" fill-rule="evenodd"/></svg><svg width="42" height="42" viewBox="0 0 42 42" id="icon-features-notifications" y="997"><title>icon-features-notifications</title><g fill="none" fill-rule="evenodd"><path d="M7 32h28v-2c-2.498-4.012-3.953-8.838-4-14 0-5.523-4.477-10-10-10s-10 4.477-10 10c-.047 5.162-1.502 9.988-4 14v2z" stroke="#DB4C3F" stroke-width="2"/><path d="M25 34c0 2.21-1.79 4-4 4s-4-1.79-4-4h8z" fill="#DB4C3F"/></g></svg><svg width="42" height="42" viewBox="0 0 42 42" id="icon-features-notifications-premium" y="1039"><title>icon-features-notifications</title><g fill="none" fill-rule="evenodd"><path d="M7 32h28v-2c-2.498-4.012-3.953-8.838-4-14 0-5.523-4.477-10-10-10s-10 4.477-10 10c-.047 5.162-1.502 9.988-4 14v2z" stroke="#F7B850" stroke-width="2"/><path d="M25 34c0 2.21-1.79 4-4 4s-4-1.79-4-4h8z" fill="#F7B850"/></g></svg><svg width="26" height="30" viewBox="0 0 26 30" id="icon-features-notifications-v1" y="1081"><title>notifications_icon</title><g fill="none" fill-rule="evenodd"><path d="M-8-9h42v42H-8z"/><path d="M1 24h24v-2.692c-2.14-3.395-3.388-7.48-3.43-11.846C21.57 4.788 17.735 1 13 1S4.43 4.788 4.43 9.462C4.387 13.83 3.14 17.912 1 21.308V24z" stroke="#F86959" stroke-width="2"/><path d="M13 29.5A3.499 3.499 0 0 1 9.5 26h7c0 1.934-1.566 3.5-3.5 3.5z" fill="#F86959"/></g></svg><svg width="42" height="42" viewBox="0 0 42 42" id="icon-features-priority" y="1111"><title>icon-features-priority</title><path d="M7 16V7h15l2 2h11v18H22l-2-2H9v10H7V16zm16-5h10v14H23l-2-2H9V9h12l2 2z" fill="#DB4C3F" fill-rule="evenodd"/></svg><svg width="42" height="42" viewBox="0 0 42 42" id="icon-features-priority-premium" y="1153"><title>icon-features-priority</title><path d="M7 16V7h15l2 2h11v18H22l-2-2H9v10H7V16zm16-5h10v14H23l-2-2H9V9h12l2 2z" fill="#F7B850" fill-rule="evenodd"/></svg><svg width="28" height="28" viewBox="0 0 28 28" id="icon-features-priority-v1" y="1195"><title>priority_icon</title><g fill="none" fill-rule="evenodd"><path d="M-7-10h42v42H-7z"/><path d="M0 1.997C0 .894.893 0 1.992 0H15l2 2h9.008C27.108 2 28 2.893 28 3.995v14.01A1.997 1.997 0 0 1 25.997 20H15l-2-2H2v10H0V1.997zM16 4h10v14H16l-2-2H2V2h12l2 2z" fill="#F86959"/></g></svg><svg width="42" height="42" viewBox="0 0 42 42" id="icon-features-recurring" y="1223"><title>icon-features-recurring</title><g fill="none" fill-rule="evenodd"><path d="M14 25v2.005A4.994 4.994 0 0 0 18.995 32H27h-1v-1.5h-7.004a3.503 3.503 0 0 1-3.496-3.496V25h3.25l-4-4-4 4H14zm14 0v-2.005A4.994 4.994 0 0 0 23.005 18H17v1.5h6.004a3.503 3.503 0 0 1 3.496 3.496V25H28zm4-17h5c1.105 0 2 .9 2 1.993v23.005A3.995 3.995 0 0 1 35.01 37H6.99A3.996 3.996 0 0 1 3 32.998V9.993C3 8.893 3.89 8 5 8h5V5h4v3h14V5h4v3zM5 15h32v18.01c0 1.1-.89 1.99-2.002 1.99H7.002A2 2 0 0 1 5 33.01V15zm18.25 10l4 4 4-4h-8z" fill="#DB4C3F"/><path d="M3 24l4-4 4 4H3z"/></g></svg><svg width="42" height="42" viewBox="0 0 42 42" id="icon-features-recurring-premium" y="1265"><title>icon-features-recurring</title><g fill="none" fill-rule="evenodd"><path d="M14 25v2.005A4.994 4.994 0 0 0 18.995 32H27h-1v-1.5h-7.004a3.503 3.503 0 0 1-3.496-3.496V25h3.25l-4-4-4 4H14zm14 0v-2.005A4.994 4.994 0 0 0 23.005 18H17v1.5h6.004a3.503 3.503 0 0 1 3.496 3.496V25H28zm4-17h5c1.105 0 2 .9 2 1.993v23.005A3.995 3.995 0 0 1 35.01 37H6.99A3.996 3.996 0 0 1 3 32.998V9.993C3 8.893 3.89 8 5 8h5V5h4v3h14V5h4v3zM5 15h32v18.01c0 1.1-.89 1.99-2.002 1.99H7.002A2 2 0 0 1 5 33.01V15zm18.25 10l4 4 4-4h-8z" fill="#F7B850"/><path d="M3 24l4-4 4 4H3z"/></g></svg><svg width="32" height="28" viewBox="0 0 32 28" id="icon-features-recurring-v1" y="1307"><title>repeat_dates_icon</title><g fill="none" fill-rule="evenodd"><path d="M-5-7h42v42H-5z"/><g fill="#F86959"><path d="M27 2h2.998A2 2 0 0 1 32 3.997v19.997A4.003 4.003 0 0 1 27.996 28H4.004A4.002 4.002 0 0 1 0 23.994V3.997C0 2.894.89 2 2.002 2H5V0h4v2h14V0h4v2zM2 8h28v16.005C30 25.107 29.1 26 28.01 26H3.99A1.994 1.994 0 0 1 2 24.005V8z"/><path d="M20.5 16h-2l2.5 3 2.5-3h-2v-.5c0-1.93-1.57-3.5-3.506-3.5H13v1h4.996a2.507 2.507 0 0 1 2.504 2.507V16zm-8 2h2L12 15l-2.5 3h2v.5c0 1.93 1.57 3.5 3.506 3.5H20v-1h-4.996a2.507 2.507 0 0 1-2.504-2.507V18z"/></g></g></svg><svg width="42" height="42" viewBox="0 0 42 42" id="icon-features-reminders" y="1335"><title>icon-features-reminders</title><path d="M8.932 32L6 34.932 8.068 37 11 34.068 8.932 32zm24.142 0L31 34.074 33.926 37 36 34.926 33.074 32zM21 37c7.732 0 14-6.268 14-14S28.732 9 21 9 7 15.268 7 23s6.268 14 14 14zm0-2c6.627 0 12-5.373 12-12s-5.373-12-12-12S9 16.373 9 23s5.373 12 12 12zM15 6.835A7.514 7.514 0 0 0 11.558 6 7.558 7.558 0 0 0 4 13.558c0 1.242.305 2.41.835 3.442L15 6.835zM30.44 6A7.56 7.56 0 0 1 38 13.558c0 1.24-.305 2.408-.835 3.442L27 6.835A7.511 7.511 0 0 1 30.44 6zM27 25h-8v-9h2v7.2h6V25z" fill="#DB4C3F" fill-rule="evenodd"/></svg><svg width="42" height="42" viewBox="0 0 42 42" id="icon-features-reminders-premium" y="1377"><title>icon-features-reminders</title><path d="M8.932 32L6 34.932 8.068 37 11 34.068 8.932 32zm24.142 0L31 34.074 33.926 37 36 34.926 33.074 32zM21 37c7.732 0 14-6.268 14-14S28.732 9 21 9 7 15.268 7 23s6.268 14 14 14zm0-2c6.627 0 12-5.373 12-12s-5.373-12-12-12S9 16.373 9 23s5.373 12 12 12zM15 6.835A7.514 7.514 0 0 0 11.558 6 7.558 7.558 0 0 0 4 13.558c0 1.242.305 2.41.835 3.442L15 6.835zM30.44 6A7.56 7.56 0 0 1 38 13.558c0 1.24-.305 2.408-.835 3.442L27 6.835A7.511 7.511 0 0 1 30.44 6zM27 25h-8v-9h2v7.2h6V25z" fill="#F7B850" fill-rule="evenodd"/></svg><svg width="34" height="31" viewBox="0 0 34 31" id="icon-features-reminders-v1" y="1419"><title>reminders_icon</title><g fill="none" fill-rule="evenodd"><path d="M-4-6h42v42H-4z"/><path d="M4.932 26L2 28.932 4.068 31 7 28.068 4.932 26zm24.142 0L27 28.074 29.926 31 32 28.926 29.074 26zM17 31c7.732 0 14-6.268 14-14S24.732 3 17 3 3 9.268 3 17s6.268 14 14 14zm0-2c6.627 0 12-5.373 12-12S23.627 5 17 5 5 10.373 5 17s5.373 12 12 12zM11 .835A7.514 7.514 0 0 0 7.558 0 7.558 7.558 0 0 0 0 7.558C0 8.8.305 9.968.835 11L11 .835zM26.44 0A7.56 7.56 0 0 1 34 7.558c0 1.24-.305 2.408-.835 3.442L23 .835A7.511 7.511 0 0 1 26.44 0zM23 19h-8v-9h2v7.2h6V19z" fill="#F86959"/></g></svg><svg width="42" height="42" viewBox="0 0 42 42" id="icon-features-search" y="1450"><title>search_icon</title><path d="M27.46 25.71L35 33.25 33.25 35l-7.54-7.54A11.446 11.446 0 0 1 18.5 30C12.15 30 7 24.85 7 18.5S12.15 7 18.5 7 30 12.15 30 18.5c0 2.73-.95 5.238-2.54 7.21zM18.5 28c5.247 0 9.5-4.253 9.5-9.5S23.747 9 18.5 9 9 13.253 9 18.5s4.253 9.5 9.5 9.5z" fill="#DB4C3F" fill-rule="evenodd"/></svg><svg width="42" height="42" viewBox="0 0 42 42" id="icon-features-search-premium" y="1492"><title>search_icon</title><path d="M27.46 25.71L35 33.25 33.25 35l-7.54-7.54A11.446 11.446 0 0 1 18.5 30C12.15 30 7 24.85 7 18.5S12.15 7 18.5 7 30 12.15 30 18.5c0 2.73-.95 5.238-2.54 7.21zM18.5 28c5.247 0 9.5-4.253 9.5-9.5S23.747 9 18.5 9 9 13.253 9 18.5s4.253 9.5 9.5 9.5z" fill="#F7B850" fill-rule="evenodd"/></svg><svg width="42" height="42" viewBox="0 0 42 42" id="icon-features-share" y="1534"><title>icon-features-share</title><g fill="none" fill-rule="evenodd"><path d="M8 16A8 8 0 1 0 8 0a8 8 0 0 0 0 16zm0-2A6 6 0 1 0 8 2a6 6 0 0 0 0 12zm20 7a8 8 0 1 0 0-16 8 8 0 0 0 0 16zm0-2a6 6 0 1 0 0-12 6 6 0 0 0 0 12zM13 36a8 8 0 1 0 0-16 8 8 0 0 0 0 16zm0-2a6 6 0 1 0 0-12 6 6 0 0 0 0 12z" fill="#DB4C3F" transform="translate(3 3)"/><path d="M27.4 29.92a13.71 13.71 0 0 0 1.577-1.335c.496-.496.93-1.028 1.335-1.576m-5.53-19.742a13.783 13.783 0 0 0-4.026-1.085M4.752 20.65c.152 1.38.52 2.737 1.086 4.028" stroke="#DB4C3F" stroke-width="2" stroke-linecap="round"/></g></svg><svg width="42" height="42" viewBox="0 0 42 42" id="icon-features-share-premium" y="1576"><title>icon-features-share</title><g fill="none" fill-rule="evenodd"><path d="M8 16A8 8 0 1 0 8 0a8 8 0 0 0 0 16zm0-2A6 6 0 1 0 8 2a6 6 0 0 0 0 12zm20 7a8 8 0 1 0 0-16 8 8 0 0 0 0 16zm0-2a6 6 0 1 0 0-12 6 6 0 0 0 0 12zM13 36a8 8 0 1 0 0-16 8 8 0 0 0 0 16zm0-2a6 6 0 1 0 0-12 6 6 0 0 0 0 12z" fill="#F7B850" transform="translate(3 3)"/><path d="M27.4 29.92a13.71 13.71 0 0 0 1.577-1.335c.496-.496.93-1.028 1.335-1.576m-5.53-19.742a13.783 13.783 0 0 0-4.026-1.085M4.752 20.65c.152 1.38.52 2.737 1.086 4.028" stroke="#F7B850" stroke-width="2" stroke-linecap="round"/></g></svg><svg width="42" height="42" viewBox="0 0 42 42" id="icon-features-stats" y="1618"><title>icon-features-stats</title><g transform="translate(3 7)" stroke="#DB4C3F" fill="none" fill-rule="evenodd"><path d="M3.064 15l9.957-3 9.96 13.2 9.956-22.072" stroke-width="1.75"/><circle stroke-width="1.75" fill="#FFF" cx="22.5" cy="24.5" r="3.5"/><circle stroke-width="1.5" fill="#FFF" cx="33" cy="3" r="3"/><circle stroke-width="1.5" fill="#FFF" cx="13" cy="12" r="3"/><circle stroke-width="1.5" fill="#FFF" cx="3" cy="15" r="3"/></g></svg><svg width="42" height="42" viewBox="0 0 42 42" id="icon-features-stats-premium" y="1660"><title>icon-features-stats</title><g transform="translate(3 7)" stroke="#F7B850" fill="none" fill-rule="evenodd"><path d="M3.064 15l9.957-3 9.96 13.2 9.956-22.072" stroke-width="1.75"/><circle stroke-width="1.75" fill="#FFF" cx="22.5" cy="24.5" r="3.5"/><circle stroke-width="1.5" fill="#FFF" cx="33" cy="3" r="3"/><circle stroke-width="1.5" fill="#FFF" cx="13" cy="12" r="3"/><circle stroke-width="1.5" fill="#FFF" cx="3" cy="15" r="3"/></g></svg><svg width="42" height="42" viewBox="0 0 42 42" id="icon-features-subprojects" y="1702"><title>icon-features-subprojects</title><g fill="#DB4C3F" fill-rule="evenodd"><path d="M34 13.005V6H4V1.997C4 .894 4.89 0 6.002 0h27.996A2 2 0 0 1 36 1.997v19.997a4.003 4.003 0 0 1-2 3.47v-12.46z" transform="translate(3 4)"/><path d="M30 14v16.01c0 1.1-.9 1.99-1.99 1.99H3.99A1.99 1.99 0 0 1 2 30.01V14h28zM0 9.997C0 8.894.89 8 2.002 8h27.996A2 2 0 0 1 32 9.997v19.997A4.003 4.003 0 0 1 27.996 34H4.004A4.002 4.002 0 0 1 0 29.994V9.997zM5 18h22v2H5v-2zm4 4h18v2H9v-2zm0 4h18v2H9v-2z" transform="translate(3 4)"/></g></svg><svg width="42" height="42" viewBox="0 0 42 42" id="icon-features-subprojects-premium" y="1744"><title>icon-features-subprojects</title><g fill="#F7B850" fill-rule="evenodd"><path d="M34 13.005V6H4V1.997C4 .894 4.89 0 6.002 0h27.996A2 2 0 0 1 36 1.997v19.997a4.003 4.003 0 0 1-2 3.47v-12.46z" transform="translate(3 4)"/><path d="M30 14v16.01c0 1.1-.9 1.99-1.99 1.99H3.99A1.99 1.99 0 0 1 2 30.01V14h28zM0 9.997C0 8.894.89 8 2.002 8h27.996A2 2 0 0 1 32 9.997v19.997A4.003 4.003 0 0 1 27.996 34H4.004A4.002 4.002 0 0 1 0 29.994V9.997zM5 18h22v2H5v-2zm4 4h18v2H9v-2zm0 4h18v2H9v-2z" transform="translate(3 4)"/></g></svg><svg width="42" height="42" viewBox="0 0 42 42" id="icon-features-subtasks" y="1786"><title>icon-features-subtasks</title><path d="M3 6.99A3.989 3.989 0 0 1 6.99 3h28.02A3.989 3.989 0 0 1 39 6.99v28.02A3.989 3.989 0 0 1 35.01 39H6.99A3.989 3.989 0 0 1 3 35.01V6.99zm2 .012C5 5.896 5.89 5 7.002 5h27.996C36.104 5 37 5.89 37 7.002v27.996C37 36.104 36.11 37 34.998 37H7.002A1.998 1.998 0 0 1 5 34.998V7.002zm5.44 14.83l2.12-2.12 4.996 4.995L29.254 13.01l2.12 2.12-13.817 13.82-1.06-1.06-6.058-6.058z" fill="#DB4C3F" fill-rule="evenodd"/></svg><svg width="42" height="42" viewBox="0 0 42 42" id="icon-features-subtasks-premium" y="1828"><title>icon-features-subtasks</title><path d="M3 6.99A3.989 3.989 0 0 1 6.99 3h28.02A3.989 3.989 0 0 1 39 6.99v28.02A3.989 3.989 0 0 1 35.01 39H6.99A3.989 3.989 0 0 1 3 35.01V6.99zm2 .012C5 5.896 5.89 5 7.002 5h27.996C36.104 5 37 5.89 37 7.002v27.996C37 36.104 36.11 37 34.998 37H7.002A1.998 1.998 0 0 1 5 34.998V7.002zm5.44 14.83l2.12-2.12 4.996 4.995L29.254 13.01l2.12 2.12-13.817 13.82-1.06-1.06-6.058-6.058z" fill="#F7B850" fill-rule="evenodd"/></svg><svg width="42" height="42" viewBox="0 0 42 42" id="icon-features-sync" y="1870"><title>icon-features-sync</title><g fill="#DB4C3F" fill-rule="evenodd"><path d="M31.036 13V9.276A9.275 9.275 0 0 0 21.76 0H10v2h12.01A6.99 6.99 0 0 1 29 8.99V13h2.036zM14.312 26a9.274 9.274 0 0 1-9.276-9.276V11H7v6.01A6.99 6.99 0 0 0 13.99 24H27v2H14.312z" transform="translate(3 8)"/><path d="M24 13l6 6 6-6H24zM0 13l6-6 6 6H0z" transform="translate(3 8)"/></g></svg><svg width="42" height="42" viewBox="0 0 42 42" id="icon-features-sync-premium" y="1912"><title>icon-features-sync</title><g fill="#F7B850" fill-rule="evenodd"><path d="M31.036 13V9.276A9.275 9.275 0 0 0 21.76 0H10v2h12.01A6.99 6.99 0 0 1 29 8.99V13h2.036zM14.312 26a9.274 9.274 0 0 1-9.276-9.276V11H7v6.01A6.99 6.99 0 0 0 13.99 24H27v2H14.312z" transform="translate(3 8)"/><path d="M24 13l6 6 6-6H24zM0 13l6-6 6 6H0z" transform="translate(3 8)"/></g></svg><svg width="34" height="24" viewBox="0 0 34 24" id="icon-features-sync-v1" y="1954"><title>sync_icon</title><g fill="#F86959" fill-rule="evenodd"><path d="M30.036 13V9.276A9.275 9.275 0 0 0 20.76 0H9v2h12.01A6.99 6.99 0 0 1 28 8.99V13h2.036zM13.312 24a9.274 9.274 0 0 1-9.276-9.276V9H6v6.01A6.99 6.99 0 0 0 12.99 22H26v2H13.312z"/><path d="M24 11l5 6 5-6M0 12l5-6 5 6"/></g></svg><svg width="30" height="30" viewBox="0 0 30 30" id="icon-logo-dribbble" y="1978"><title>new</title><path d="M15 30C6.73 30 0 23.27 0 15S6.73 0 15 0c8.272 0 15 6.73 15 15s-6.728 15-15 15zm12.65-12.947c-.438-.14-3.965-1.19-7.98-.547 1.676 4.605 2.357 8.356 2.49 9.135a12.831 12.831 0 0 0 5.49-8.587zm-7.646 9.76c-.19-1.124-.934-5.04-2.733-9.716-.027.01-.056.02-.084.028-7.226 2.518-9.82 7.53-10.05 8a12.733 12.733 0 0 0 7.864 2.706 12.74 12.74 0 0 0 5.004-1.017zM5.482 23.587c.29-.497 3.806-6.32 10.414-8.456.167-.053.336-.104.506-.15a43.146 43.146 0 0 0-1.04-2.175C8.965 14.72 2.756 14.64 2.196 14.63a12.764 12.764 0 0 0 3.287 8.957zm-3.024-11.19c.573.006 5.852.03 11.845-1.562a81.922 81.922 0 0 0-4.75-7.41 12.858 12.858 0 0 0-7.095 8.97zm9.54-9.834c.354.474 2.68 3.643 4.78 7.5 4.556-1.707 6.484-4.3 6.715-4.628A12.762 12.762 0 0 0 15 2.205c-1.034 0-2.04.125-3.003.357zm12.92 4.354c-.27.365-2.417 3.118-7.154 5.052a39.711 39.711 0 0 1 1.126 2.514c4.262-.535 8.5.325 8.92.414a12.74 12.74 0 0 0-2.892-7.98z" fill="#EA4C89" fill-rule="evenodd"/></svg><svg width="28" height="28" viewBox="0 0 28 28" id="icon-logo-facebook" y="2008"><title>facebook_icon</title><path d="M0 2.996A3.002 3.002 0 0 1 2.996 0h22.008A3.002 3.002 0 0 1 28 2.996v22.008A3.002 3.002 0 0 1 25.004 28H2.996A3.002 3.002 0 0 1 0 25.004V2.996zM15 28V17h-3.693v-4H15V9.815c0-3.617 2.164-5.586 5.39-5.586 1.546 0 2.874.114 3.262.165V8h-2.238c-1.755 0-2.094.84-2.094 2.06V13h4.184l-.345 2.534-.2 1.466h-3.64v11H15z" fill="#375085" fill-rule="evenodd"/></svg><svg width="28" height="28" viewBox="0 0 28 28" id="icon-logo-flipboard" y="2036"><title>new</title><g fill="none" fill-rule="evenodd"><rect fill="#E12828" width="28" height="28" rx="1"/><path fill="#FAD4D4" d="M6 6h6v6H6z" transform="translate(5 5)"/><path fill="#FFF" d="M0 0h6v17H0z" transform="translate(5 5)"/><path fill="#FAEAEA" d="M6 0h11v6H6z" transform="translate(5 5)"/></g></svg><svg width="32" height="21" viewBox="0 0 32 21" id="icon-logo-google" y="2064"><title>google_icon</title><path d="M10.204 9v3.6h5.787c-.232 1.545-1.748 4.53-5.786 4.53-3.484 0-6.326-2.97-6.326-6.63 0-3.66 2.842-6.63 6.326-6.63 1.983 0 3.31.87 4.067 1.62l2.77-2.745C15.263 1.035 12.96 0 10.205 0 4.564 0 0 4.695 0 10.5S4.563 21 10.204 21C16.094 21 20 16.74 20 10.74c0-.69-.073-1.215-.16-1.74h-9.636zM32 9h-3V6h-3v3h-3v3h3v3h3v-3h3V9z" fill="#DC4E41" fill-rule="evenodd"/></svg><svg width="28" height="28" viewBox="0 0 28 28" id="icon-logo-instagram" y="2085"><title>Rectangle 202</title><path d="M5.657 12H3v11.51c0 .827.67 1.49 1.495 1.49h19.01C24.33 25 25 24.332 25 23.51V12h-2.73c.17.675.26 1.38.26 2.11a8.567 8.567 0 1 1-17.134-.001c0-.73.09-1.435.26-2.11zM0 2.996A3.002 3.002 0 0 1 2.996 0h22.008A3.002 3.002 0 0 1 28 2.996v22.008A3.002 3.002 0 0 1 25.004 28H2.996A3.002 3.002 0 0 1 0 25.004V2.996zM19 4.5c0-.83.665-1.5 1.5-1.5h3c.83 0 1.5.665 1.5 1.5v3c0 .83-.665 1.5-1.5 1.5h-3c-.83 0-1.5-.665-1.5-1.5v-3zm-5 15a5.5 5.5 0 1 0 0-11 5.5 5.5 0 1 0 0 11z" fill="#2A5B83" fill-rule="evenodd"/></svg><svg width="28" height="28" viewBox="0 0 28 28" id="icon-logo-linkedin" y="2113"><title>Fill 8</title><path d="M2.066 0C.926 0 0 .904 0 2.017V25.98C0 27.093.926 28 2.066 28h23.86c1.14 0 2.074-.906 2.074-2.02V2.016C28 .904 27.067 0 25.926 0H2.066zM6.01 3.855a2.41 2.41 0 0 1 2.407 2.407 2.41 2.41 0 0 1-4.818 0 2.407 2.407 0 0 1 2.41-2.407zM4 10.497h4V24H4V10.497zm10.997-.004v1.825c.613-1.05 1.975-2.158 4.004-2.158 4.22 0 5 2.767 5 6.365v7.47h-4v-6.638c0-1.55-.197-3.543-2.334-3.543-2.17 0-2.5 1.687-2.666 3.43v6.752h-4V10.493h3.997z" fill="#0077B5" fill-rule="evenodd"/></svg><svg width="30" height="30" viewBox="0 0 30 30" id="icon-logo-pinterest" y="2141"><title>Fill 4</title><path d="M0 15c0 6.355 3.954 11.783 9.534 13.968-.13-1.186-.25-3.007.052-4.302.273-1.17 1.76-7.457 1.76-7.457s-.45-.9-.45-2.227c0-2.086 1.208-3.643 2.714-3.643 1.28 0 1.898.96 1.898 2.112 0 1.288-.82 3.212-1.242 4.995-.353 1.493.748 2.71 2.22 2.71 2.667 0 4.717-2.81 4.717-6.87 0-3.59-2.58-6.102-6.266-6.102-4.268 0-6.773 3.202-6.773 6.51 0 1.29.496 2.672 1.116 3.424.123.147.14.277.104.43-.114.473-.367 1.492-.416 1.7-.066.275-.218.332-.503.2-1.873-.872-3.044-3.61-3.044-5.81 0-4.732 3.44-9.078 9.912-9.078 5.203 0 9.248 3.708 9.248 8.664 0 5.17-3.26 9.33-7.784 9.33-1.52 0-2.95-.79-3.438-1.723 0 0-.752 2.864-.934 3.566-.34 1.302-1.254 2.935-1.865 3.93 1.402.435 2.894.67 4.44.67 8.284 0 15-6.716 15-15 0-8.284-6.716-15-15-15C6.716 0 0 6.716 0 15z" fill="#AA262A" fill-rule="evenodd"/></svg><svg width="25" height="21" viewBox="0 0 25 21" id="icon-logo-twitter" y="2171"><title>twitter_icon</title><path d="M25 2.405c-.92.408-1.908.684-2.946.808A5.14 5.14 0 0 0 24.309.375a10.281 10.281 0 0 1-3.258 1.245 5.129 5.129 0 0 0-8.871 3.51c0 .4.045.792.132 1.168A14.562 14.562 0 0 1 1.74.938a5.126 5.126 0 0 0-.694 2.58c0 1.78.906 3.35 2.282 4.268a5.114 5.114 0 0 1-2.323-.64v.063a5.133 5.133 0 0 0 4.114 5.03 5.117 5.117 0 0 1-2.318.087 5.136 5.136 0 0 0 4.79 3.562 10.291 10.291 0 0 1-6.368 2.194c-.414 0-.823-.024-1.224-.07a14.528 14.528 0 0 0 7.862 2.303c9.435 0 14.593-7.816 14.593-14.593 0-.223-.004-.444-.014-.664A10.407 10.407 0 0 0 25 2.403" fill="#50ABF1" fill-rule="evenodd"/></svg><svg width="32" height="23" viewBox="0 0 32 23" id="icon-logo-youtube" y="2192"><title>Fill 25</title><defs><linearGradient x1="50%" y1="0%" x2="50%" y2="100%" id="cia"><stop stop-color="#E52D25" offset="0%"/><stop stop-color="#C01A1D" offset="100%"/></linearGradient></defs><path d="M26.696 34.74v-9.187l8.645 4.61-8.644 4.578zM45.68 23.96s-.313-2.252-1.272-3.244c-1.217-1.303-2.58-1.31-3.206-1.385C36.724 19 30.007 19 30.007 19h-.014s-6.717 0-11.195.33c-.626.077-1.99.083-3.207 1.386-.958.992-1.27 3.245-1.27 3.245S14 26.61 14 29.255v2.48c0 2.648.32 5.293.32 5.293s.312 2.254 1.27 3.246c1.22 1.303 2.818 1.262 3.53 1.398C21.68 41.923 30 42 30 42s6.724-.01 11.202-.34c.625-.078 1.99-.084 3.206-1.387.96-.992 1.272-3.246 1.272-3.246s.32-2.645.32-5.292v-2.48c0-2.647-.32-5.294-.32-5.294z" transform="translate(-14 -19)" fill="url(#cia)" fill-rule="evenodd"/></svg><svg width="64" height="64" viewBox="0 0 64 64" id="icon-media-play" y="2215"><title>default_video</title><g fill="none" fill-rule="evenodd"><circle fill="#FFF" cx="32" cy="32" r="32"/><path d="M24 21.002c0-2.21 1.538-3.073 3.426-1.932l17.148 10.36c1.892 1.143 1.888 3 0 4.14L27.426 43.93C25.534 45.073 24 44.208 24 41.998V21.002z" fill="#8D95AE"/></g></svg><svg width="32" height="32" viewBox="0 0 32 32" id="icon-platforms-android" y="2279"><title>icon-platforms-android</title><path d="M24 19.232v-5.76c0-.814.672-1.472 1.5-1.472s1.5.66 1.5 1.472v5.76c0 .813-.672 1.474-1.5 1.474s-1.5-.662-1.5-1.474zM6.5 20.706c-.83 0-1.5-.662-1.5-1.474v-5.76C5 12.658 5.67 12 6.5 12c.827 0 1.5.66 1.5 1.472v5.76c0 .813-.672 1.474-1.5 1.474zM20.376 24v3.46c0 .722-.627 1.54-1.564 1.54-1.013 0-1.565-.82-1.565-1.54V24h-2.434v3.46c0 .72-.513 1.54-1.565 1.54-.948 0-1.563-.82-1.563-1.54V24H10.29C9.616 24 9 23.464 9 22.812V12h14v10.812c0 .652-.555 1.188-1.23 1.188h-1.393zm-4.38-18.537c1.02 0 1.986.178 2.86.502l1.348-1.855a.252.252 0 0 1 .183-.1.227.227 0 0 1 .182.023c.07.048.1.13.084.21a.256.256 0 0 1-.046.162L19.33 6.163c2.052.92 3.487 2.665 3.67 4.837H9c.18-2.16 1.602-3.9 3.634-4.823l-1.287-1.772a.251.251 0 0 1 .053-.348c.01-.008.018-.016.03-.024.1-.064.244-.03.32.076l.035.047 1.322 1.82a8.204 8.204 0 0 1 2.89-.515zM12.294 8.42a.75.75 0 1 0 1.5 0 .75.75 0 0 0-1.5 0zm6.72-.75a.75.75 0 1 0 0 1.5.75.75 0 0 0 0-1.5z" fill="#7D8485" fill-rule="evenodd"/></svg><svg width="32" height="32" viewBox="0 0 32 32" id="icon-platforms-android-phone" y="2311"><title>icon-platforms-android-phone</title><path d="M11.035 4.15C9.1 4 14 4 16.127 4c1.873 0 4.837.15 4.837.15C22.15 4.25 23 4.89 23 6.004v20.992c0 1.107-.92 1.854-2.036 1.854 0 0-3.19.15-4.837.15-1.663 0-5.092-.15-5.092-.15C9.91 28.85 9 28.11 9 26.996V6.004c0-1.107.9-1.754 2.035-1.854zM10 6h12v21H10V6zm4 22c0-.138.115-.25.25-.25h3.5c.138 0 .25.116.25.25 0 .138-.116.25-.25.25h-3.5A.253.253 0 0 1 14 28zm0-23c0-.138.115-.25.25-.25h3.5c.137 0 .25.116.25.25 0 .138-.116.25-.25.25h-3.5A.253.253 0 0 1 14 5zm5.5.25a.25.25 0 1 0 0-.5.25.25 0 0 0 0 .5z" fill="#7D8485" fill-rule="evenodd"/></svg><svg width="32" height="32" viewBox="0 0 32 32" id="icon-platforms-android-tablet" y="2343"><title>icon-platforms-android-tablet</title><path d="M9.214 4C8.544 4 8 4.56 8 5.25v22.5c0 .69.544 1.25 1.214 1.25h14.572c.67 0 1.214-.56 1.214-1.25V5.25C25 4.56 24.456 4 23.786 4H9.214zm7.61 1.475a.324.324 0 1 1-.649 0 .325.325 0 1 1 .65 0zM9 27V7h15v20H9z" fill="#7D8485" fill-rule="evenodd"/></svg><svg width="32" height="32" viewBox="0 0 32 32" id="icon-platforms-android-wear" y="2375"><title>icon-platforms-android-wear</title><g fill="#7D8485" fill-rule="evenodd"><path d="M16.845 14.125a8.518 8.518 0 0 1-4.425 5.92v3.745c-.196.675-.988 1.21-1.777 1.21H6.357c-.795 0-1.583-.542-1.777-1.21v-3.746A8.499 8.499 0 0 1 0 12.5a8.499 8.499 0 0 1 4.58-7.544V1.21C4.774.542 5.562 0 6.357 0h4.286c.79 0 1.58.535 1.777 1.21v3.746A8.508 8.508 0 0 1 16.868 11h.253c.14 0 .256.104.256.245v2.635c0 .135-.12.245-.254.245h-.276zM8.5 19.75a7.25 7.25 0 1 0 0-14.5 7.25 7.25 0 0 0 0 14.5z" transform="translate(7 3)"/><path d="M5.11 13.165l1.976 1.976.265.268.268-.266 4.376-4.375-.53-.53-4.377 4.376h.53L5.64 12.636l-.53.53z" transform="translate(7 3)"/></g></svg><svg id="icon-platforms-apple" viewBox="0 0 32 32" width="32" height="32" y="2407"><style>.st0{fill-rule:evenodd;clip-rule:evenodd;fill:#7d8485}</style><title>icon-platforms-apple</title><defs><path id="cpSVGID_1_" d="M-641-192H799V68H-641z"/></defs><clipPath id="cpSVGID_2_"><use xlink:href="#cpSVGID_1_" overflow="visible"/></clipPath><circle class="st0" cx="15.5" cy="24.5" r=".5"/><path class="st0" d="M11 7h9v16h-9z"/><path class="st0" d="M23 3H8C5.2 3 3 5.2 3 8v15c0 2.8 2.2 5 5 5h15c2.8 0 5-2.2 5-5V8c0-2.8-2.2-5-5-5zm-2 21.7c0 .7-.6 1.3-1.3 1.3h-8.4c-.7 0-1.3-.6-1.3-1.3V6.3c0-.7.6-1.3 1.3-1.3h8.4c.7 0 1.3.6 1.3 1.3v18.4z"/></svg><svg width="32" height="32" viewBox="0 0 32 32" id="icon-platforms-apple-watch" y="2439"><title>icon-platforms-apple-watch</title><g fill="#7D8485" fill-rule="evenodd"><path d="M0 7.5A2.5 2.5 0 0 1 2.5 5h10A2.5 2.5 0 0 1 15 7.5v10a2.5 2.5 0 0 1-2.5 2.5h-10A2.5 2.5 0 0 1 0 17.5v-10zm1.25 9.167V8.333c0-1.15.933-2.083 2.083-2.083h8.334c1.15 0 2.083.933 2.083 2.083v8.334c0 1.15-.933 2.083-2.083 2.083H3.333a2.084 2.084 0 0 1-2.083-2.083zM9.643 0c.79 0 1.58.535 1.774 1.21L12.5 5h-10l1.083-3.79C3.773.542 4.563 0 5.357 0h4.286zM5.357 25h4.286c.79 0 1.58-.535 1.774-1.21L12.5 20h-10l1.083 3.79c.19.668.98 1.21 1.774 1.21zm9.897-16.25h.117c.14 0 .256.104.256.245v2.635c0 .135-.12.245-.254.245H15V8.75h.254z" transform="translate(8 4)"/><path d="M4.11 13.165l1.976 1.976.265.268.268-.266 4.376-4.375-.53-.53-4.377 4.376h.53L4.64 12.636l-.53.53z" transform="translate(8 4)"/></g></svg><svg width="32" height="32" viewBox="0 0 32 32" id="icon-platforms-business" y="2471"><title>icon-platforms-business</title><path d="M18 16h9v8.89C27 26 25.9 26 25.9 26H6.1S5 26 5 24.89V16h9v.99c0 .558.443 1.01 1.01 1.01h1.98c.558 0 1.01-.443 1.01-1.01V16zm0-1h9v-3.864C27 10 25.9 10 25.9 10H6.1S5 10 5 11.136V15h9c.005-.562.455-1 1.01-1h1.98c.563 0 1.005.447 1.01 1zm.054-7.02H14.01V10H13V8.25C13 7 14.154 7 14.154 7h3.692S19 7 19 8.25V10h-.946V7.98zM15 15v2h2v-2h-2z" fill="#7D8485" fill-rule="evenodd"/></svg><svg width="32" height="32" viewBox="0 0 32 32" id="icon-platforms-chrome" y="2503"><title>icon-platforms-chrome</title><path d="M15.388 28.99c-.073-.002-.147-.014-.263-.024l1.024-1.75c1.586-2.71 3.156-5.43 4.765-8.125 1.495-2.496.998-5.424-.883-7.26-.262-.26-.482-.482-1.032-.83h8.712c.246 0 .352.145.44.374 2.852 7.498-1.774 15.86-9.623 17.38a13.254 13.254 0 0 1-3.143.235zm.605-18.8a5.798 5.798 0 0 0-5.75 5.128c-.014.117-.033.23-.05.36-.1-.046-.127-.14-.167-.215-1.385-2.378-2.768-4.76-4.155-7.137-.116-.202-.13-.332.033-.526 2.204-2.645 4.997-4.264 8.42-4.686 4.157-.516 7.76.724 10.79 3.616 1 .953 1.8 2.067 2.432 3.3.022.038.035.08.067.16h-11.62zm-1.725 18.467c-.092.157-.174.207-.36.176-2.608-.44-4.883-1.55-6.805-3.362-2.186-2.06-3.52-4.585-3.956-7.556-.475-3.245.205-6.257 1.964-9.027.11.05.138.15.185.233 1.89 3.246 3.772 6.497 5.662 9.745 1.47 2.532 4.463 3.59 7.163 2.535.146-.06.292-.128.438-.192.015.014.027.03.04.046-.63 1.074-1.26 2.15-1.888 3.225-.817 1.39-1.634 2.78-2.442 4.176zm1.704-7.832c-2.67-.003-4.794-2.155-4.792-4.852 0-2.687 2.15-4.806 4.87-4.8 2.647.004 4.775 2.156 4.775 4.832 0 2.694-2.144 4.82-4.853 4.82z" fill="#7D8485" fill-rule="evenodd"/></svg><svg width="32" height="32" viewBox="0 0 32 32" id="icon-platforms-chromebook" y="2535"><title>icon-platforms-chromebook</title><path d="M3 23V7.906c0-.5.392-.906.87-.906h24.26c.478 0 .87.407.87.906V23H3zM28 8H4v14h24V8zM1 24.667C1 25.403 1.984 26 3.143 26h25.714c1.16 0 2.143-.597 2.143-1.333V24H1v.667zm15.973-4.762c-.4.077-.802.108-1.208.09-.03 0-.057-.005-.102-.01l.394-.672c.61-1.042 1.215-2.088 1.834-3.125.577-.96.385-2.086-.34-2.792-.1-.1-.21-.186-.32-.288h.164c1.038 0 2.075.002 3.112 0 .09 0 .135.024.17.113 1.096 2.885-.683 6.1-3.702 6.686zm3.363-7.14h-4.34c-1.128 0-2.08.85-2.21 1.972l-.02.14c-.04-.02-.048-.055-.064-.084-.532-.915-1.064-1.83-1.598-2.745-.045-.077-.05-.127.012-.202.848-1.017 1.922-1.64 3.238-1.802 1.6-.2 2.986.278 4.15 1.39a4.7 4.7 0 0 1 .936 1.27c.01.014.014.03.026.06h-.13zm-4.063 5.496c-.314.536-.628 1.07-.94 1.608-.035.06-.066.08-.138.068a4.93 4.93 0 0 1-2.617-1.293 4.866 4.866 0 0 1-1.52-2.907c-.184-1.248.077-2.406.754-3.47.042.018.052.056.07.088.727 1.25 1.45 2.5 2.178 3.748a2.224 2.224 0 0 0 2.755.976c.056-.023.113-.05.17-.074l.014.018-.728 1.24zm-.285-1.404a1.845 1.845 0 0 1-1.843-1.866c0-1.034.827-1.85 1.872-1.847 1.02.002 1.837.83 1.837 1.858a1.846 1.846 0 0 1-1.866 1.856z" fill="#7D8485" fill-rule="evenodd"/></svg><svg width="32" height="32" viewBox="0 0 32 32" id="icon-platforms-email" y="2567"><title>icon-platforms-email</title><path d="M27.156 8H4.846L16 19.16 27.156 8zm.844.462l-12 12-12-12V24.34L11.3 17l.7.7L4.653 25h22.694L20 17.7l.7-.7 7.3 7.34V8.462z" fill="#7D8485" fill-rule="evenodd"/></svg><svg width="32" height="32" viewBox="0 0 32 32" id="icon-platforms-firefox" y="2599"><title>icon-platforms-firefox</title><path d="M23.616 12.428c.15 0 .162 2.473-.153 3.658 0 0-.254-.642-1.355-1.13.29.773.286 1.742.286 1.742 0 3.1-2.51 5.608-5.61 5.608-2.446 0-3.975-1.53-4.567-2.335.316.36 1.893.1 2.808-.512.92-.62 1.465-1.073 1.957-.967.487.107.815-.375.433-.804-.38-.428-1.304-1.02-2.554-.698-.88.228-1.97 1.188-3.64.215C9.8 16.373 9.81 15.7 9.81 15.27c0-.43.66-1.58 2.074-.976.184.08-.016-.875-.284-1.483.51-1.044 2.16-1.355 2.283-1.445.22-.165.097-.247.175-.5.072-.23.115-.857-1.728-.686-.848.08-1.39-1.005-1.564-1.268.053-.334.146-.64.272-.918.128-.255.265-.49.402-.667.043-.055.082-.103.117-.15.274-.314.61-.586 1.01-.806.217-.12-2.357-.012-3.518 1.477-.31.04-.736-.05-1.214-.05-.595 0-1.065.065-1.5.17-.07.022-.18.01-.32-.02-.385-.392-.647-1.957-.647-1.957l-2.208 4.49S2 12.833 2 15.933c0 7.18 5.822 13 13 13 7.18 0 13.002-5.82 13-13C28.002 12 26.03 9.13 26.03 9.13c-.78-1.304-3.127-4.67-8.313-4.057.75.06 2.637.51 3.963 1.273-.232 0-1.574 0-2.908.205 2.535.38 4.597 2.005 5.57 4.216.09.21.344.968.458 1.462-3.72-3.098-1.323-.977-1.184.2z" fill="#7D8485" fill-rule="evenodd"/></svg><svg width="32" height="32" viewBox="0 0 32 32" id="icon-platforms-gmail" y="2631"><title>icon-platforms-gmail</title><path d="M3.5 26c-.827 0-1.5-.688-1.5-1.538V7.54C2 6.69 2.672 6 3.5 6h24c.828 0 1.5.69 1.5 1.54v16.92c0 .852-.672 1.54-1.5 1.54h-24zM23 9l-7.5 6L8 9H5v14h3V12l7.5 6 7.5-6v11h3V9h-3z" fill="#7D8485" fill-rule="evenodd"/></svg><svg width="32" height="32" viewBox="0 0 32 32" id="icon-platforms-ipad" y="2663"><title>icon-platforms-ipad</title><path d="M23.786 4H9.214C8.544 4 8 4.56 8 5.25v22.5c0 .69.544 1.25 1.214 1.25h14.572c.67 0 1.214-.56 1.214-1.25V5.25C25 4.56 24.456 4 23.786 4zm-6.96 1.575a.326.326 0 0 1-.651 0 .325.325 0 1 1 .65 0zM16.55 28.3a.8.8 0 1 1-.002-1.598.8.8 0 0 1 .002 1.598zM24 26H9V7h15v19z" fill="#7D8485" fill-rule="evenodd"/></svg><svg width="32" height="32" viewBox="0 0 32 32" id="icon-platforms-iphone" y="2695"><title>icon-platforms-iphone</title><path d="M11.95 4C10.873 4 10 4.84 10 5.875v21.25C10 28.16 10.873 29 11.95 29h9.1c1.076 0 1.95-.84 1.95-1.875V5.875C23 4.84 22.126 4 21.05 4h-9.1zm4.106 1.2h1.912c.176 0 .32.146.32.325 0 .18-.144.325-.32.325h-1.912a.324.324 0 0 1-.32-.325c0-.18.145-.325.32-.325zm-1.27 0a.324.324 0 1 1 .001.651.324.324 0 0 1 0-.651zm1.434 23.1a.801.801 0 1 1 .002-1.602.801.801 0 0 1-.002 1.602zM22 26H11V7h11v19z" fill="#7D8485" fill-rule="evenodd"/></svg><svg width="32" height="32" viewBox="0 0 32 32" id="icon-platforms-osx" y="2727"><title>icon-platforms-osx</title><path d="M16 29c7.18 0 13-5.82 13-13S23.18 3 16 3 3 8.82 3 16s5.82 13 13 13zM10.122 8.136h1.084l4.8 6.997 4.905-6.997h1.063l-5.35 7.733 5.648 8.177h-1.125l-5.14-7.444-5.16 7.444H9.74l5.692-8.18-5.31-7.732z" fill="#7D8485" fill-rule="evenodd"/></svg><svg width="32" height="32" viewBox="0 0 32 32" id="icon-platforms-outlook" y="2759"><title>icon-platforms-outlook</title><path d="M22.06 14.466l-2.9-2.23V8.1H29.3v.53l-7.24 5.836zm-2.9 7.638v-8.23l2.805 2.018 7.335-5.585v11.797H19.16zM2.734 26.018V5.358L17.937 3v25.488l-15.203-2.47zm7.528-15.838c-2.22 0-4.02 2.37-4.02 5.292 0 2.923 1.8 5.296 4.02 5.296 2.22 0 4.02-2.373 4.02-5.296 0-2.922-1.8-5.292-4.02-5.292zm.022 8.56c-1.26 0-2.282-1.445-2.282-3.226 0-1.78 1.022-3.224 2.282-3.224 1.257 0 2.278 1.443 2.278 3.224 0 1.782-1.02 3.225-2.278 3.225z" fill="#7D8485" fill-rule="evenodd"/></svg><svg width="32" height="32" viewBox="0 0 32 32" id="icon-platforms-postbox" y="2791"><title>icon-platforms-postbox</title><path d="M9.824 3.355c-1.73.626-2.82 1.926-3.61 3.523-.65 1.313-.9 2.727-.9 4.186-.004 5.224-.002 10.448-.002 15.67v.5c-.415-.108-.784-.193-1.144-.304-.07-.022-.127-.14-.155-.225-.025-.085-.006-.185-.006-.28v-15.67c0-1.88.373-3.65 1.524-5.185 1.094-1.46 2.54-2.3 4.35-2.496.075-.008.146-.05.22-.075h.693c-.32.12-.643.236-.966.354h-.003zM27.58 27.603c-.343.042-.677.133-1.07.214v-2.74c-.002-.126-.002-.255-.02-.38-.1-.687-.474-.97-1.16-.863-.82.128-1.64.27-2.46.405l-3.826.633c-1.01.168-1.643.913-1.65 1.97-.01.86-.013 1.72.003 2.582.005.235-.077.33-.294.368-.317.057-.63.132-.963.204-.006-.108-.016-.198-.016-.29-.008-6.26-.016-12.52-.017-18.78 0-1.252.16-2.482.58-3.667.91-2.576 2.933-3.972 5.647-3.906 2.818.07 4.89 1.86 5.43 4.734.118.636.18 1.293.182 1.94.014 5.7.006 11.402.016 17.104 0 .308-.08.436-.383.47zM9.54 24.848c-.968-.224-1.933-.458-2.9-.67-.243-.052-.312-.15-.312-.396.01-4.094.003-8.19.01-12.284.002-.58.065-1.16.092-1.74.012-.248.113-.342.37-.317 1.137.11 2.275.206 3.41.308.874.08 1.747.165 2.62.248.043.005.085.017.112.023v15.62c-1.186-.276-2.295-.53-3.403-.79v-.002zm1.72-13.64a240.116 240.116 0 0 1-3.513-.377c-.286-.03-.367.088-.364.353.01.664.003 1.328.003 1.99 0 .49.025.518.517.585 1.096.15 2.194.295 3.29.457.317.046.426-.075.42-.374-.01-.37-.003-.744-.003-1.116 0-.372-.008-.744.005-1.116.008-.26-.094-.373-.356-.398v-.002zm6.584-7.254a6.823 6.823 0 0 0-.62.557c-1.026 1.08-1.58 2.4-1.788 3.855a22.274 22.274 0 0 0-.23 3.052c-.02 6.006-.01 12.01-.01 18.016v.38c-.082.013-.093.018-.104.016-1.105-.196-1.105-.196-1.105-1.328 0-5.97-.01-11.94.006-17.91.004-1.55.282-3.052.972-4.46.733-1.5 1.944-2.343 3.63-2.72-.306.218-.536.37-.75.543zm-4.15 2.744c-.215.672-.4 1.355-.57 2.04-.06.26-.157.33-.42.3-1.02-.1-2.04-.178-3.06-.263-.895-.075-1.79-.145-2.684-.22-.043-.004-.085-.03-.166-.06.297-1.164.685-2.263 1.64-3.06a.375.375 0 0 1 .248-.08c1.75.09 3.5.188 5.25.286.055.005.11.02.218.038-.167.37-.35.682-.457 1.02zm1.55-2.397c-.388.43-.783.517-1.33.47-1.435-.12-2.876-.17-4.316-.247.826-.56 1.65-1.1 2.702-1.08 1.35.02 2.7.004 4.05.005.023 0 .045.006.053.008-.385.272-.842.495-1.16.845z" fill="#7D8485" fill-rule="evenodd"/></svg><svg id="icon-platforms-safari" viewBox="0 0 32 32" width="32" height="32" y="2823"><style>.st0{fill:#7d8485}</style><title>safari_icon</title><path class="st0" d="M16 4.8C9.8 4.8 4.8 9.8 4.8 16s5 11.2 11.2 11.2 11.2-5 11.2-11.2S22.2 4.8 16 4.8zM8.6 23.4l4.9-9.2 4.2 4.2-9.1 5zm9.9-5.6l-4.2-4.2 9.2-4.9-5 9.1z"/><path class="st0" d="M16 3C8.8 3 3 8.8 3 16s5.8 13 13 13 13-5.8 13-13S23.2 3 16 3zm0 25C9.4 28 4 22.6 4 16S9.4 4 16 4s12 5.4 12 12-5.4 12-12 12z"/></svg><svg width="32" height="32" viewBox="0 0 32 32" id="icon-platforms-thunderbird" y="2855"><title>icon-platforms-thunderbird</title><path d="M9.477 23.818c.202.763 2.468 2.925 2.87 3.132-.298-.033-1.242.264-1.87-.09.143.3.21.476.137.46-1.226-.14-5.914-2.513-7.254-8.753-1.338-6.217 1.247-9.92 4.524-12.025.14-.09.727-.22.62-.025-2.578 4.735-1.405 8.313-.742 10.06 1.196 3.146 3.49 7.156 5.404 7.548.272.057-2.776.605-3.69-.307zm18.56.127l-.1.18a12.091 12.091 0 0 1-.545.865c-.047.064-.092.127-.14.19-.097.135-.196.268-.297.396-.048.057-.093.115-.138.17-.15.178-.3.35-.457.516-1.295 1.362-2.254 2.357-1.547.967.115-.23.122.074.15-.334-.962 1.5-2.383 2.828-5.574 3.41.56-.42 2.98-1.28 3.923-3.52-.654 1.5-2.565 2.442-4.003 2.842-.583.164-2.02.525-2.46.5-.984-.064-.242-.317 1.03-1.06.104-.06.545-.35.62-.405a13.571 13.571 0 0 0 .408-.316 7.87 7.87 0 0 0 .227-.195c.024-.022.223-.204.292-.27.017-.02.49-.516.548-.584.026-.026.215-.252.284-.34.004-.007.404-.55.455-.623.02-.027.194-.286.26-.386.01-.02.142-.228.194-.313l.195-.345a8.742 8.742 0 0 0 .215-.399 19.468 19.468 0 0 0 .225-.442c.043-.09.146-.31.157-.33.047-.108.175-.4.19-.438.034-.076.13-.307.144-.345a24.305 24.305 0 0 0 .252-.657l.045-.125c.027-.077.054-.153.078-.23l.04-.108.105-.312c.01-.038.023-.075.036-.114.02-.075.095-.304.107-.346.023-.077.088-.296.094-.325.03-.103.11-.383.12-.424.016-.067.074-.28.084-.324.02-.084.08-.333.094-.377.014-.07.102-.45.116-.51.01-.04.215-1.08.23-1.15-1.317 2.58-4.295 2.594-4.608 2.386-.042 0 1.404-.6 2.193-1.664.53-.712.495-1.888.53-2.286v-.003c-.177-2.632-3.054-4.96-8.318-3.054-1.277.46-.804 1.262-1.94 1.72 0 0-.86.506-1.674 1.67-.1-.114-1.594-2.14-1.892-5.41-.13-1.43.548-3.85.58-3.893.117-.41.807-2.457 2.346-4.015 1.754-1.776 3.598-1.97 3.868-1.992.002 0-.73.65-1.012 1.043-.42.587-.424 1.09-.448 1.285.274-.09 1.293-.34 1.293-.34s1.603-.402 3.942-.085c1.242.168 3.51.49 5.282 1.61 2.846 1.11 5.427 4.466 5.913 7.855.56 3.894-.072 7.815-1.712 10.777z" fill="#7D8485" fill-rule="evenodd"/></svg><svg width="32" height="32" viewBox="0 0 32 32" id="icon-platforms-todoist" y="2887"><title>icon-platforms-todoist</title><path d="M25 4H7C5.35 4 4 5.35 4 7v3.866l.008-.004 4.09 2.377c.31.178.694.175 1.004 0l8.136-4.677a.77.77 0 0 1 .748-.01c.164.097.606.348.84.48.232.134.22.502.014.622-.21.12-9.29 5.345-9.713 5.59-.346.2-.69.204-1.048.002-.602-.34-3.082-1.784-4.08-2.365v2.028l.008-.004 4.09 2.376c.31.18.694.177 1.004 0 .26-.147 8.02-4.61 8.136-4.676.28-.16.58-.106.748-.008.164.096.606.347.84.48.232.132.22.5.014.62l-9.713 5.59c-.346.2-.69.205-1.048.002-.602-.34-3.082-1.784-4.08-2.365v2.03l.008-.005 4.09 2.376c.31.18.694.177 1.004 0 .26-.147 8.02-4.61 8.136-4.676.28-.16.58-.106.748-.01.164.098.606.35.84.482.232.132.22.5.014.62l-9.713 5.59c-.346.2-.69.205-1.048.002-.602-.34-3.082-1.784-4.08-2.365V25c0 1.65 1.35 3 3 3h18c1.65 0 3-1.35 3-3V7c0-1.65-1.35-3-3-3" fill="#7D8485" fill-rule="evenodd"/></svg><svg width="32" height="32" viewBox="0 0 32 32" id="icon-platforms-web" y="2919"><title>icon-platforms-web</title><path d="M3.937 22C3.422 22 3 21.593 3 21.094V6.906c0-.5.422-.906.937-.906h22.126c.515 0 .937.407.937.906v14.188c0 .5-.423.906-.938.906H3.937zM19 23h-8v2h-1v1h10v-1h-1v-2zM4 7h22v14H4V7zm1 1h20v12H5V8z" fill="#7D8485" fill-rule="evenodd"/></svg><svg width="32" height="32" viewBox="0 0 32 32" id="icon-platforms-windows" y="2951"><title>icon-platforms-windows</title><path d="M14.64 15.466V5.92L28 4v11.467H14.64zm-10.64 0V7.452l9.7-1.394v9.41H4v-.002zm0 9.043v-8.12h9.7v9.528L4 24.51zm10.64 1.546V16.39H28V28l-13.36-1.943z" fill="#7D8485" fill-rule="evenodd"/></svg><svg width="36" height="36" viewBox="0 0 36 36" id="icon-play" y="2983"><title>Fill 1 + Fill 2</title><g fill="#444" fill-rule="evenodd"><path d="M18 35.464c-9.67 0-17.538-7.868-17.538-17.54C.462 8.255 8.33.388 18 .388s17.538 7.868 17.538 17.538S27.67 35.465 18 35.465zm0-33.23c-8.653 0-15.692 7.038-15.692 15.69C2.308 26.58 9.348 33.62 18 33.62c8.653 0 15.692-7.04 15.692-15.693 0-8.653-7.04-15.692-15.692-15.692z" transform="translate(0 .5)"/><path d="M12.518 8.948l15.548 8.977-15.548 8.977V8.948" transform="translate(0 .5)"/></g></svg><svg width="24" height="24" viewBox="0 0 24 24" id="icon-play-red" y="3019"><title>Imported Layers</title><g fill="#E44332" fill-rule="evenodd"><path d="M12 23.642C5.553 23.642.308 18.398.308 11.95.308 5.503 5.553.258 12 .258S23.692 5.503 23.692 11.95c0 6.448-5.245 11.692-11.692 11.692zM12 1.49c-5.77 0-10.462 4.69-10.462 10.46 0 5.77 4.693 10.462 10.462 10.462 5.77 0 10.462-4.693 10.462-10.462C22.462 6.182 17.77 1.49 12 1.49z"/><path d="M8.345 5.966L18.71 11.95 8.346 17.935V5.965"/></g></svg><svg width="36" height="36" viewBox="0 0 36 36" id="icon-play-white" y="3043"><title>play</title><g fill="#FFF" fill-rule="evenodd"><path d="M18 35.464c-9.67 0-17.538-7.868-17.538-17.54C.462 8.255 8.33.388 18 .388s17.538 7.868 17.538 17.538S27.67 35.465 18 35.465zm0-33.23c-8.653 0-15.692 7.038-15.692 15.69C2.308 26.58 9.348 33.62 18 33.62c8.653 0 15.692-7.04 15.692-15.693 0-8.653-7.04-15.692-15.692-15.692z" transform="translate(0 .5)"/><path d="M12.518 8.948l15.548 8.977-15.548 8.977V8.948" transform="translate(0 .5)"/></g></svg><svg width="75" height="81" viewBox="0 0 75 81" id="icon-reasons-collaborate" y="3079"><title>icon-reasons-collaborate</title><g fill="none" fill-rule="evenodd"><path d="M69.97 44.908c.194-1.29.327-2.602.327-3.947 0-1.344-.133-2.655-.327-3.946m-35.61-20.62a26.442 26.442 0 0 0-6.928 3.988m0 41.158a26.42 26.42 0 0 0 6.93 3.988" stroke="#E44332" stroke-width="3"/><path d="M62.896 42.99c7.798 0 14.143 6.344 14.143 14.142 0 7.8-6.346 14.143-14.144 14.143S48.753 64.93 48.753 57.132c0-7.798 6.345-14.143 14.143-14.143m0-3c-9.468 0-17.143 7.675-17.143 17.142 0 9.468 7.675 17.143 17.143 17.143S80.04 66.6 80.04 57.132c0-9.467-7.676-17.143-17.144-17.143M17.182 42.99c7.798 0 14.143 6.344 14.143 14.142 0 7.8-6.345 14.143-14.143 14.143-7.8 0-14.143-6.344-14.143-14.143 0-7.798 6.343-14.143 14.142-14.143m0-3C7.714 39.99.04 47.664.04 57.13c0 9.468 7.674 17.143 17.142 17.143 9.467 0 17.143-7.675 17.143-17.143 0-9.467-7.676-17.143-17.143-17.143M40.04 3.39c7.797 0 14.142 6.346 14.142 14.144 0 7.8-6.345 14.143-14.143 14.143-7.8 0-14.144-6.344-14.144-14.143 0-7.798 6.344-14.143 14.143-14.143m0-3c-9.47 0-17.144 7.677-17.144 17.144 0 9.468 7.675 17.143 17.143 17.143 9.467 0 17.142-7.675 17.142-17.143C57.182 8.067 49.507.39 40.04.39" transform="rotate(-90 40.5 40.5)" fill="#E44332"/></g></svg><svg width="81" height="88" viewBox="0 0 81 88" id="icon-reasons-design" y="3160"><title>icon-reasons-design</title><g fill="none" fill-rule="evenodd"><path d="M58.957 22.61l13.68 37.587-1.88.683-13.68-37.587 1.88-.684m1.195-2.565l-5.638 2.052 15.05 41.347 5.637-2.052-15.048-41.347" fill="#E44332"/><path d="M72.382 62.418l4.104 11.276" stroke="#E44332" stroke-width="2"/><path d="M68.382 62.418c0 2.21 1.79 4 4 4s4-1.79 4-4-1.79-4-4-4-4 1.79-4 4z" fill="#FFF"/><path d="M68.382 62.418c0 2.21 1.79 4 4 4s4-1.79 4-4-1.79-4-4-4-4 1.79-4 4z" stroke="#E44332" stroke-width="2"/><path d="M51.043 22.61l1.88.683-13.68 37.587-1.88-.683 13.68-37.588m-1.195-2.565l-15.05 41.347 5.64 2.052 15.048-41.347-5.638-2.052" fill="#E44332"/><path d="M37.618 62.418l-4.104 11.276" stroke="#E44332" stroke-width="2"/><path d="M41.618 62.418c0 2.21-1.79 4-4 4s-4-1.79-4-4 1.79-4 4-4 4 1.79 4 4z" fill="#FFF"/><path d="M41.618 62.418c0 2.21-1.79 4-4 4s-4-1.79-4-4 1.79-4 4-4 4 1.79 4 4z" stroke="#E44332" stroke-width="2"/><path d="M54.5.306c-1.1 0-2 .9-2 2v8c0 1.1.9 2 2 2s2-.9 2-2v-8c0-1.1-.9-2-2-2" fill="#E44332"/><path d="M52.5 27.306c-1.654 0-3-1.346-3-3v-8c0-1.655 1.346-3 3-3h4c1.654 0 3 1.345 3 3v8c0 1.654-1.346 3-3 3h-4" fill="#FFF"/><g fill="#E44332"><path d="M52.5 14.306c1.103 0 2 .897 2 2v8c0 1.103-.897 2-2 2h-4c-1.103 0-2-.897-2-2v-8c0-1.103.897-2 2-2h4m0-2h-4c-2.2 0-4 1.8-4 4v8c0 2.2 1.8 4 4 4h4c2.2 0 4-1.8 4-4v-8c0-2.2-1.8-4-4-4M2.962 2h16v70h-16V2zm-2 72h20V0h-20v74z" transform="translate(4)"/><path d="M8.888 66h12.075v2H8.888v-2zm4.074-4h8v2h-8v-2zm-4.074-4h12.075v2H8.888v-2zm4.074-4h8v2h-8v-2zm-4.074-4h12.075v2H8.888v-2zm4.074-4h8v2h-8v-2zm-4.074-4h12.075v2H8.888v-2zm4.074-4h8v2h-8v-2zm-4.074-4h12.075v2H8.888v-2zm4.074-4h8v2h-8v-2zm-4.074-4h12.075v2H8.888v-2zm4.074-4h8v2h-8v-2zm-4.074-4h12.075v2H8.888v-2zm4.074-4h8v2h-8v-2zm-4.074-4h12.075v2H8.888v-2zm4.074-4h8v2h-8V6z" transform="translate(4)"/></g><path d="M12.39 87l-9.06-3 9.063-3h66.672v6h-66.67" fill="#FFF"/><path d="M78.063 82v4h-65.51L6.51 84l6.042-2h65.51m2-2H12.23L.145 84l12.083 4h67.833v-8" fill="#E44332"/><path d="M13.146 84h65M13.21 87v-6" stroke="#E44332" stroke-width="2"/></g></svg><svg width="90" height="64" viewBox="0 0 90 64" id="icon-reasons-everywhere" y="3248"><title>icon-reasons-everywhere</title><g fill="none" fill-rule="evenodd"><path d="M88.45 45.3c0-7.08-4.322-13.148-10.47-15.72.72-12.38-7.604-23.82-20.102-26.62-11.9-2.663-23.713 3.37-28.816 13.883-3.855-2.945-9.283-3.352-13.617-.6-4.84 3.076-6.707 9.062-4.773 14.227C5.498 33.394 2 38.934 2 45.3c0 9.407 7.626 17.033 17.034 17.033h52.39c9.403-.005 17.025-7.63 17.025-17.034z" stroke="#DE4A32" stroke-width="3"/><path d="M49.013 52.288c-4.388.58-8.905-.754-12.186-4.035-5.736-5.737-5.524-15.248.473-21.245l1.83-1.786m7.267-2.82c4.433-.557 8.98.84 12.242 4.197 5.65 5.818 5.302 15.325-.782 21.234l-1.815 1.84" stroke="#DE4A32" stroke-width="2"/><path d="M56.043 44.064v5.61h5.61M39.128 30.83v-5.608h-5.61" stroke="#db4c3f" stroke-width="2"/></g></svg></svg>